<?xml version="1.0" encoding="UTF-8" standalone="no"?>
<!-- Created with Inkscape (http://www.inkscape.org/) -->

<svg
   version="1.1"
   id="svg132"
   width="200"
   height="146.25867"
   viewBox="0 0 200 146.25867"
   sodipodi:docname="atom.svg"
   inkscape:version="1.3.2 (091e20e, 2023-11-25)"
   xmlns:inkscape="http://www.inkscape.org/namespaces/inkscape"
   xmlns:sodipodi="http://sodipodi.sourceforge.net/DTD/sodipodi-0.dtd"
   xmlns="http://www.w3.org/2000/svg"
   xmlns:svg="http://www.w3.org/2000/svg">
  <defs
     id="defs136">
    <clipPath
       clipPathUnits="userSpaceOnUse"
       id="clipPath156">
      <path
         d="M 0,109.694 H 109.694 V 0 H 0 Z"
         id="path154" />
    </clipPath>
    <clipPath
       clipPathUnits="userSpaceOnUse"
       id="clipPath160">
      <path
         d="M 109.694,54.847 C 109.694,24.556 85.138,0 54.847,0 24.556,0 0,24.556 0,54.847 c 0,30.291 24.556,54.847 54.847,54.847 30.291,0 54.847,-24.556 54.847,-54.847"
         id="path158" />
    </clipPath>
    <clipPath
       clipPathUnits="userSpaceOnUse"
       id="clipPath164">
      <path
         d="M -32768,32767 H 32767 V -32768 H -32768 Z"
         id="path162" />
    </clipPath>
    <radialGradient
       fx="0"
       fy="0"
       cx="0"
       cy="0"
       r="1"
       gradientUnits="userSpaceOnUse"
       gradientTransform="matrix(54.847031,0,0,-54.847031,54.847031,54.847031)"
       spreadMethod="pad"
       id="radialGradient170">
      <stop
         style="stop-opacity:1;stop-color:#ffffff"
         offset="0"
         id="stop166" />
      <stop
         style="stop-opacity:0;stop-color:#ffffff"
         offset="1"
         id="stop168" />
    </radialGradient>
    <mask
       maskUnits="userSpaceOnUse"
       x="0"
       y="0"
       width="1"
       height="1"
       id="mask172">
      <g
         id="g182">
        <g
           clip-path="url(#clipPath164)"
           id="g180">
          <g
             id="g178">
            <g
               id="g176">
              <path
                 d="M -32768,32767 H 32767 V -32768 H -32768 Z"
                 style="fill:url(#radialGradient170);stroke:none"
                 id="path174" />
            </g>
          </g>
        </g>
      </g>
    </mask>
    <radialGradient
       fx="0"
       fy="0"
       cx="0"
       cy="0"
       r="1"
       gradientUnits="userSpaceOnUse"
       gradientTransform="matrix(54.847031,0,0,-54.847031,54.847031,54.847031)"
       spreadMethod="pad"
       id="radialGradient188">
      <stop
         style="stop-opacity:1;stop-color:#ffca00"
         offset="0"
         id="stop184" />
      <stop
         style="stop-color:#ffffff;stop-opacity:0;"
         offset="1"
         id="stop186" />
    </radialGradient>
    <clipPath
       clipPathUnits="userSpaceOnUse"
       id="clipPath895">
      <g
         id="g901"
         style="stroke-width:1">
        <g
           id="g899"
           style="stroke-width:1">
          <path
             d="M 0,109.694 H 109.694 V 0 H 0 Z"
             id="path897"
             style="stroke-width:1" />
        </g>
      </g>
    </clipPath>
    <clipPath
       clipPathUnits="userSpaceOnUse"
       id="clipPath925">
      <g
         id="g931"
         style="stroke-width:1">
        <g
           id="g929"
           style="stroke-width:1">
          <path
             d="M 0,109.694 H 109.694 V 0 H 0 Z"
             id="path927"
             style="stroke-width:1" />
        </g>
      </g>
    </clipPath>
    <clipPath
       clipPathUnits="userSpaceOnUse"
       id="clipPath955">
      <g
         id="g961"
         style="stroke-width:1">
        <g
           id="g959"
           style="stroke-width:1">
          <path
             d="M 0,109.694 H 109.694 V 0 H 0 Z"
             id="path957"
             style="stroke-width:1" />
        </g>
      </g>
    </clipPath>
    <clipPath
       clipPathUnits="userSpaceOnUse"
       id="clipPath985">
      <g
         id="g991"
         style="stroke-width:1">
        <g
           id="g989"
           style="stroke-width:1">
          <path
             d="M 0,109.694 H 109.694 V 0 H 0 Z"
             id="path987"
             style="stroke-width:1" />
        </g>
      </g>
    </clipPath>
    <clipPath
       clipPathUnits="userSpaceOnUse"
       id="clipPath1015">
      <g
         id="g1021"
         style="stroke-width:1">
        <g
           id="g1019"
           style="stroke-width:1">
          <path
             d="M 0,109.694 H 109.694 V 0 H 0 Z"
             id="path1017"
             style="stroke-width:1" />
        </g>
      </g>
    </clipPath>
    <clipPath
       clipPathUnits="userSpaceOnUse"
       id="clipPath1045">
      <g
         id="g1051"
         style="stroke-width:1">
        <g
           id="g1049"
           style="stroke-width:1">
          <path
             d="M 0,109.694 H 109.694 V 0 H 0 Z"
             id="path1047"
             style="stroke-width:1" />
        </g>
      </g>
    </clipPath>
    <clipPath
       clipPathUnits="userSpaceOnUse"
       id="clipPath1075">
      <g
         id="g1081"
         style="stroke-width:1">
        <g
           id="g1079"
           style="stroke-width:1">
          <path
             d="M 0,109.694 H 109.694 V 0 H 0 Z"
             id="path1077"
             style="stroke-width:1" />
        </g>
      </g>
    </clipPath>
    <clipPath
       clipPathUnits="userSpaceOnUse"
       id="clipPath1090">
      <g
         id="g1096"
         style="stroke-width:1">
        <g
           id="g1094"
           style="stroke-width:1">
          <path
             d="M 0,109.694 H 109.694 V 0 H 0 Z"
             id="path1092"
             style="stroke-width:1" />
        </g>
      </g>
    </clipPath>
    <clipPath
       clipPathUnits="userSpaceOnUse"
       id="clipPath1105">
      <g
         id="g1111"
         style="stroke-width:1">
        <g
           id="g1109"
           style="stroke-width:1">
          <path
             d="M 0,109.694 H 109.694 V 0 H 0 Z"
             id="path1107"
             style="stroke-width:1" />
        </g>
      </g>
    </clipPath>
  </defs>
  <sodipodi:namedview
     id="namedview134"
     pagecolor="#505050"
     bordercolor="#eeeeee"
     borderopacity="1"
     inkscape:showpageshadow="0"
     inkscape:pageopacity="0"
     inkscape:pagecheckerboard="0"
     inkscape:deskcolor="#505050"
     showgrid="false"
     inkscape:zoom="2.1922773"
     inkscape:cx="74.808055"
     inkscape:cy="124.0719"
     inkscape:window-width="1472"
     inkscape:window-height="939"
     inkscape:window-x="0"
     inkscape:window-y="31"
     inkscape:window-maximized="0"
     inkscape:current-layer="g140">
    <inkscape:page
       x="0"
       y="0"
       id="page138"
       width="200"
       height="146.25867"
       margin="0"
       bleed="0"
       inkscape:export-filename="atom.png"
       inkscape:export-xdpi="360"
       inkscape:export-ydpi="360" />
  </sodipodi:namedview>
  <g
     id="g140"
     inkscape:groupmode="layer"
     inkscape:label="Page 1"
     transform="matrix(1.3333333,0,0,-1.3333333,0,146.25867)">
    <path
       d="M 109.694,54.847 C 109.694,24.556 85.138,0 54.847,0 24.556,0 0,24.556 0,54.847 c 0,30.291 24.556,54.847 54.847,54.847 30.291,0 54.847,-24.556 54.847,-54.847"
       style="fill:url(#radialGradient188);stroke:none"
       id="path192"
       inkscape:label="electron cloud" />
    <path
       d="m 63.597,46.0972 c 0,-4.833 -3.917,-8.75 -8.75,-8.75 -4.833,0 -8.75,3.917 -8.75,8.75 0,4.833 3.917,8.75 8.75,8.75 4.833,0 8.75,-3.917 8.75,-8.75"
       style="fill:#fc9272;fill-opacity:1;fill-rule:nonzero;stroke:#000000;stroke-width:0.99975;stroke-dasharray:none;stroke-opacity:1"
       id="path210"
       clip-path="none" />
    <path
       d="m 72.347,54.8472 c 0,-4.833 -3.917,-8.75 -8.75,-8.75 -4.833,0 -8.75,3.917 -8.75,8.75 0,4.833 3.917,8.75 8.75,8.75 4.833,0 8.75,-3.917 8.75,-8.75"
       style="fill:#bcbddc;fill-opacity:1;fill-rule:nonzero;stroke:#000000;stroke-width:0.99975;stroke-dasharray:none;stroke-opacity:1"
       id="path218"
       clip-path="none" />
    <path
       d="m 63.597,63.5972 c 0,-4.833 -3.917,-8.75 -8.75,-8.75 -4.833,0 -8.75,3.917 -8.75,8.75 0,4.833 3.917,8.75 8.75,8.75 4.833,0 8.75,-3.917 8.75,-8.75"
       style="fill:#fc9272;fill-opacity:1;fill-rule:nonzero;stroke:#000000;stroke-width:0.99975;stroke-dasharray:none;stroke-opacity:1"
       id="path226"
       clip-path="none" />
    <path
       d="m 54.847,54.8472 c 0,-4.833 -3.917,-8.75 -8.75,-8.75 -4.833,0 -8.75,3.917 -8.75,8.75 0,4.833 3.917,8.75 8.75,8.75 4.833,0 8.75,-3.917 8.75,-8.75"
       style="fill:#bcbddc;fill-opacity:1;fill-rule:nonzero;stroke:#000000;stroke-width:0.99975;stroke-dasharray:none;stroke-opacity:1"
       id="path234"
       clip-path="none" />
    <path
       d="m 44.0164,83.4752 c 0,-1.981 -1.606,-3.588 -3.587,-3.588 -1.982,0 -3.588,1.607 -3.588,3.588 0,1.981 1.606,3.587 3.588,3.587 1.981,0 3.587,-1.606 3.587,-3.587"
       style="fill:#ffca00;fill-opacity:1;fill-rule:nonzero;stroke:#000000;stroke-width:0.99975;stroke-dasharray:none;stroke-opacity:1"
       id="path242"
       clip-path="none" />
    <path
       d="m 77.283,27.8785 c 0,-1.981 -1.606,-3.588 -3.588,-3.588 -1.981,0 -3.588,1.607 -3.588,3.588 0,1.981 1.607,3.587 3.588,3.587 1.982,0 3.588,-1.606 3.588,-3.587"
       style="fill:#ffca00;fill-opacity:1;fill-rule:nonzero;stroke:#000000;stroke-width:0.99975;stroke-dasharray:none;stroke-opacity:1"
       id="path250"
       clip-path="none" />
  </g>
</svg>
