<?xml version="1.0" encoding="UTF-8" standalone="no"?>
<!-- Created with Inkscape (http://www.inkscape.org/) -->

<svg
   version="1.1"
   id="svg132"
   width="200"
   height="100"
   viewBox="0 0 200 100"
   sodipodi:docname="atom.svg"
   inkscape:version="1.3.2 (091e20e, 2023-11-25)"
   xmlns:inkscape="http://www.inkscape.org/namespaces/inkscape"
   xmlns:sodipodi="http://sodipodi.sourceforge.net/DTD/sodipodi-0.dtd"
   xmlns="http://www.w3.org/2000/svg"
   xmlns:svg="http://www.w3.org/2000/svg">
  <defs
     id="defs136">
    <clipPath
       clipPathUnits="userSpaceOnUse"
       id="clipPath156">
      <path
         d="M 0,109.694 H 109.694 V 0 H 0 Z"
         id="path154" />
    </clipPath>
    <clipPath
       clipPathUnits="userSpaceOnUse"
       id="clipPath160">
      <path
         d="M 109.694,54.847 C 109.694,24.556 85.138,0 54.847,0 24.556,0 0,24.556 0,54.847 c 0,30.291 24.556,54.847 54.847,54.847 30.291,0 54.847,-24.556 54.847,-54.847"
         id="path158" />
    </clipPath>
    <clipPath
       clipPathUnits="userSpaceOnUse"
       id="clipPath164">
      <path
         d="M -32768,32767 H 32767 V -32768 H -32768 Z"
         id="path162" />
    </clipPath>
    <radialGradient
       fx="0"
       fy="0"
       cx="0"
       cy="0"
       r="1"
       gradientUnits="userSpaceOnUse"
       gradientTransform="matrix(54.847031,0,0,-54.847031,54.847031,54.847031)"
       spreadMethod="pad"
       id="radialGradient170">
      <stop
         style="stop-opacity:1;stop-color:#ffffff"
         offset="0"
         id="stop166" />
      <stop
         style="stop-opacity:0;stop-color:#ffffff"
         offset="1"
         id="stop168" />
    </radialGradient>
    <mask
       maskUnits="userSpaceOnUse"
       x="0"
       y="0"
       width="1"
       height="1"
       id="mask172">
      <g
         id="g182">
        <g
           clip-path="url(#clipPath164)"
           id="g180">
          <g
             id="g178">
            <g
               id="g176">
              <path
                 d="M -32768,32767 H 32767 V -32768 H -32768 Z"
                 style="fill:url(#radialGradient170);stroke:none"
                 id="path174" />
            </g>
          </g>
        </g>
      </g>
    </mask>
    <radialGradient
       fx="-0.17953622"
       fy="-0.31627917"
       cx="-0.17953622"
       cy="-0.31627917"
       r="1"
       gradientUnits="userSpaceOnUse"
       gradientTransform="matrix(54.847031,0,0,-54.847031,54.847031,54.847031)"
       spreadMethod="pad"
       id="radialGradient188">
      <stop
         style="stop-color:#ffca00;stop-opacity:0.97666669;"
         offset="0"
         id="stop184" />
      <stop
         style="stop-color:#ffca00;stop-opacity:0;"
         offset="0.67476255"
         id="stop186" />
    </radialGradient>
    <clipPath
       clipPathUnits="userSpaceOnUse"
       id="clipPath895">
      <g
         id="g901"
         style="stroke-width:1">
        <g
           id="g899"
           style="stroke-width:1">
          <path
             d="M 0,109.694 H 109.694 V 0 H 0 Z"
             id="path897"
             style="stroke-width:1" />
        </g>
      </g>
    </clipPath>
    <clipPath
       clipPathUnits="userSpaceOnUse"
       id="clipPath925">
      <g
         id="g931"
         style="stroke-width:1">
        <g
           id="g929"
           style="stroke-width:1">
          <path
             d="M 0,109.694 H 109.694 V 0 H 0 Z"
             id="path927"
             style="stroke-width:1" />
        </g>
      </g>
    </clipPath>
    <clipPath
       clipPathUnits="userSpaceOnUse"
       id="clipPath955">
      <g
         id="g961"
         style="stroke-width:1">
        <g
           id="g959"
           style="stroke-width:1">
          <path
             d="M 0,109.694 H 109.694 V 0 H 0 Z"
             id="path957"
             style="stroke-width:1" />
        </g>
      </g>
    </clipPath>
    <clipPath
       clipPathUnits="userSpaceOnUse"
       id="clipPath985">
      <g
         id="g991"
         style="stroke-width:1">
        <g
           id="g989"
           style="stroke-width:1">
          <path
             d="M 0,109.694 H 109.694 V 0 H 0 Z"
             id="path987"
             style="stroke-width:1" />
        </g>
      </g>
    </clipPath>
    <clipPath
       clipPathUnits="userSpaceOnUse"
       id="clipPath1015">
      <g
         id="g1021"
         style="stroke-width:1">
        <g
           id="g1019"
           style="stroke-width:1">
          <path
             d="M 0,109.694 H 109.694 V 0 H 0 Z"
             id="path1017"
             style="stroke-width:1" />
        </g>
      </g>
    </clipPath>
    <clipPath
       clipPathUnits="userSpaceOnUse"
       id="clipPath1045">
      <g
         id="g1051"
         style="stroke-width:1">
        <g
           id="g1049"
           style="stroke-width:1">
          <path
             d="M 0,109.694 H 109.694 V 0 H 0 Z"
             id="path1047"
             style="stroke-width:1" />
        </g>
      </g>
    </clipPath>
    <clipPath
       clipPathUnits="userSpaceOnUse"
       id="clipPath1075">
      <g
         id="g1081"
         style="stroke-width:1">
        <g
           id="g1079"
           style="stroke-width:1">
          <path
             d="M 0,109.694 H 109.694 V 0 H 0 Z"
             id="path1077"
             style="stroke-width:1" />
        </g>
      </g>
    </clipPath>
    <clipPath
       clipPathUnits="userSpaceOnUse"
       id="clipPath1090">
      <g
         id="g1096"
         style="stroke-width:1">
        <g
           id="g1094"
           style="stroke-width:1">
          <path
             d="M 0,109.694 H 109.694 V 0 H 0 Z"
             id="path1092"
             style="stroke-width:1" />
        </g>
      </g>
    </clipPath>
    <clipPath
       clipPathUnits="userSpaceOnUse"
       id="clipPath1105">
      <g
         id="g1111"
         style="stroke-width:1">
        <g
           id="g1109"
           style="stroke-width:1">
          <path
             d="M 0,109.694 H 109.694 V 0 H 0 Z"
             id="path1107"
             style="stroke-width:1" />
        </g>
      </g>
    </clipPath>
  </defs>
  <sodipodi:namedview
     id="namedview134"
     pagecolor="#505050"
     bordercolor="#eeeeee"
     borderopacity="1"
     inkscape:showpageshadow="0"
     inkscape:pageopacity="0"
     inkscape:pagecheckerboard="0"
     inkscape:deskcolor="#505050"
     showgrid="false"
     inkscape:zoom="2.1922773"
     inkscape:cx="74.808055"
     inkscape:cy="124.0719"
     inkscape:window-width="2016"
     inkscape:window-height="939"
     inkscape:window-x="0"
     inkscape:window-y="25"
     inkscape:window-maximized="0"
     inkscape:current-layer="g140">
    <inkscape:page
       x="0"
       y="0"
       id="page138"
       width="200"
       height="100"
       margin="0"
       bleed="0"
       inkscape:export-filename="atom.png"
       inkscape:export-xdpi="360"
       inkscape:export-ydpi="360" />
  </sodipodi:namedview>
  <g
     id="g140"
     inkscape:groupmode="layer"
     inkscape:label="Page 1"
     transform="matrix(1.3333333,0,0,-1.3333333,0,146.25867)">
    <path
       d="m 82.49986,72.03067 c 0,-20.530227 -16.643228,-37.173462 -37.173455,-37.173462 -20.530227,0 -37.1734634,16.643235 -37.1734634,37.173462 0,20.530228 16.6432364,37.17346 37.1734634,37.17346 20.530227,0 37.173455,-16.643232 37.173455,-37.17346"
       style="display:inline;fill:url(#radialGradient188);stroke:none;stroke-width:0.999997"
       id="path192"
       inkscape:label="electron cloud" />
    <path
       style="display:none;fill:#ffcf18;fill-opacity:0.901961;stroke:#000000;stroke-width:2.25;stroke-linecap:round"
       id="path1"
       transform="scale(1,-1)"
       sodipodi:type="arc"
       sodipodi:cx="75.1632"
       sodipodi:cy="-72.03067"
       sodipodi:rx="37.336662"
       sodipodi:ry="37.336662"
       sodipodi:start="3.1683017"
       sodipodi:end="3.1415927"
       sodipodi:open="true"
       sodipodi:arc-type="arc"
       d="M 37.839855,-73.027778 A 37.336662,37.336662 0 0 1 75.911071,-109.35984 37.336662,37.336662 0 0 1 112.49653,-71.532071 37.336662,37.336662 0 0 1 74.913894,-34.69484 37.336662,37.336662 0 0 1 37.826538,-72.03067" />
    <path
       d="m 50.93046,66.263546 c 0,-3.275645 -2.654812,-5.930457 -5.930458,-5.930457 -3.275646,0 -5.930457,2.654812 -5.930457,5.930457 0,3.275646 2.654811,5.930458 5.930457,5.930458 3.275646,0 5.930458,-2.654812 5.930458,-5.930458"
       style="fill:#fc9272;fill-opacity:1;fill-rule:nonzero;stroke:#000000;stroke-width:0.999753;stroke-dasharray:none;stroke-opacity:1"
       id="path210"
       clip-path="none" />
    <path
       d="m 56.860917,72.194004 c 0,-3.275646 -2.654812,-5.930458 -5.930457,-5.930458 -3.275646,0 -5.930458,2.654812 -5.930458,5.930458 0,3.275646 2.654812,5.930457 5.930458,5.930457 3.275645,0 5.930457,-2.654811 5.930457,-5.930457"
       style="fill:#bcbddc;fill-opacity:1;fill-rule:nonzero;stroke:#000000;stroke-width:0.999753;stroke-dasharray:none;stroke-opacity:1"
       id="path218"
       clip-path="none" />
    <path
       d="m 50.93046,78.124461 c 0,-3.275645 -2.654812,-5.930457 -5.930458,-5.930457 -3.275646,0 -5.930457,2.654812 -5.930457,5.930457 0,3.275646 2.654811,5.930458 5.930457,5.930458 3.275646,0 5.930458,-2.654812 5.930458,-5.930458"
       style="fill:#fc9272;fill-opacity:1;fill-rule:nonzero;stroke:#000000;stroke-width:0.999753;stroke-dasharray:none;stroke-opacity:1"
       id="path226"
       clip-path="none" />
    <path
       d="m 45.000002,72.194004 c 0,-3.275646 -2.654812,-5.930458 -5.930457,-5.930458 -3.275646,0 -5.930458,2.654812 -5.930458,5.930458 0,3.275646 2.654812,5.930457 5.930458,5.930457 3.275645,0 5.930457,-2.654811 5.930457,-5.930457"
       style="fill:#bcbddc;fill-opacity:1;fill-rule:nonzero;stroke:#000000;stroke-width:0.999753;stroke-dasharray:none;stroke-opacity:1"
       id="path234"
       clip-path="none" />
    <path
       d="m 37.659383,91.597105 c 0,-1.342655 -1.088493,-2.431826 -2.431148,-2.431826 -1.343334,0 -2.431827,1.089171 -2.431827,2.431826 0,1.342656 1.088493,2.431149 2.431827,2.431149 1.342655,0 2.431148,-1.088493 2.431148,-2.431149"
       style="fill:#ffca00;fill-opacity:1;fill-rule:nonzero;stroke:#000000;stroke-width:0.999753;stroke-dasharray:none;stroke-opacity:1"
       id="path242"
       clip-path="none" />
    <path
       d="m 60.206373,53.915521 c 0,-1.342656 -1.088493,-2.431827 -2.431827,-2.431827 -1.342655,0 -2.431826,1.089171 -2.431826,2.431827 0,1.342655 1.089171,2.431148 2.431826,2.431148 1.343334,0 2.431827,-1.088493 2.431827,-2.431148"
       style="fill:#ffca00;fill-opacity:1;fill-rule:nonzero;stroke:#000000;stroke-width:0.999753;stroke-dasharray:none;stroke-opacity:1"
       id="path250"
       clip-path="none" />
  </g>
</svg>
