<?xml version="1.0" encoding="UTF-8" standalone="no"?>
<!-- Created with Inkscape (http://www.inkscape.org/) -->

<svg
   width="122.90974mm"
   height="122.90424mm"
   viewBox="0 0 122.90974 122.90424"
   version="1.1"
   id="svg1"
   xml:space="preserve"
   inkscape:version="1.3.2 (091e20e, 2023-11-25)"
   sodipodi:docname="grackle-no-border.svg"
   inkscape:export-filename="grackle.png"
   inkscape:export-xdpi="360"
   inkscape:export-ydpi="360"
   xmlns:inkscape="http://www.inkscape.org/namespaces/inkscape"
   xmlns:sodipodi="http://sodipodi.sourceforge.net/DTD/sodipodi-0.dtd"
   xmlns="http://www.w3.org/2000/svg"
   xmlns:svg="http://www.w3.org/2000/svg"><sodipodi:namedview
     id="namedview1"
     pagecolor="#505050"
     bordercolor="#eeeeee"
     borderopacity="1"
     inkscape:showpageshadow="0"
     inkscape:pageopacity="0"
     inkscape:pagecheckerboard="0"
     inkscape:deskcolor="#d1d1d1"
     inkscape:document-units="mm"
     inkscape:zoom="0.84571048"
     inkscape:cx="161.99397"
     inkscape:cy="306.25138"
     inkscape:window-width="1368"
     inkscape:window-height="793"
     inkscape:window-x="56"
     inkscape:window-y="25"
     inkscape:window-maximized="0"
     inkscape:current-layer="layer1"
     showgrid="false" /><defs
     id="defs1"><radialGradient
       fx="0"
       fy="0"
       cx="0"
       cy="0"
       r="1"
       gradientUnits="userSpaceOnUse"
       gradientTransform="matrix(19.348813,0,0,19.348813,-33.832438,77.29254)"
       spreadMethod="pad"
       id="radialGradient188"><stop
         style="stop-opacity:1;stop-color:#ffca00"
         offset="0"
         id="stop184" /><stop
         style="stop-color:#ffffff;stop-opacity:0;"
         offset="1"
         id="stop186" /></radialGradient><radialGradient
       fx="0"
       fy="0"
       cx="0"
       cy="0"
       r="1"
       gradientUnits="userSpaceOnUse"
       gradientTransform="matrix(19.348813,0,0,19.348813,-24.042854,48.188373)"
       spreadMethod="pad"
       id="radialGradient188-8"><stop
         style="stop-opacity:1;stop-color:#ffca00"
         offset="0"
         id="stop184-8" /><stop
         style="stop-color:#ffffff;stop-opacity:0;"
         offset="1"
         id="stop186-9" /></radialGradient></defs><g
     inkscape:label="Layer 1"
     inkscape:groupmode="layer"
     id="layer1"
     transform="translate(2.5346718,-32.69466)"><rect
       style="display:inline;fill:#9d6766;fill-opacity:1;stroke:none;stroke-width:2"
       id="rect1"
       width="122.37507"
       height="122.37507"
       x="-2.0000005"
       y="32.69466"
       inkscape:label="red background" /><g
       inkscape:groupmode="layer"
       id="layer2"
       inkscape:label="atom"
       transform="matrix(0.71100975,0,0,0.7108239,18.426049,52.029413)"
       style="stroke-width:1.40664"><g
         inkscape:groupmode="layer"
         id="layer3"
         inkscape:label="nucleus"
         style="stroke-width:1.40664"><path
           d="m 100.14565,97.642594 c 0,1.029114 -0.834623,1.863179 -1.864427,1.863179 -1.029803,0 -1.864427,-0.834065 -1.864427,-1.863179 0,-1.029114 0.834624,-1.86318 1.864427,-1.86318 1.029804,0 1.864427,0.834066 1.864427,1.86318"
           style="fill:#fc9272;fill-opacity:1;fill-rule:nonzero;stroke:#000000;stroke-width:0.496104;stroke-dasharray:none;stroke-opacity:1"
           id="path210-2"
           clip-path="none" /><path
           d="m 99.621989,93.780478 c 0,1.029114 -0.834624,1.863179 -1.864427,1.863179 -1.029804,0 -1.864428,-0.834065 -1.864428,-1.863179 0,-1.029114 0.834624,-1.863179 1.864428,-1.863179 1.029803,0 1.864427,0.834065 1.864427,1.863179"
           style="fill:#bcbddc;fill-opacity:1;fill-rule:nonzero;stroke:#000000;stroke-width:0.496104;stroke-dasharray:none;stroke-opacity:1"
           id="path234"
           clip-path="none"
           inkscape:label="n" /><path
           d="m 105.4468,92.272716 c 0,1.029114 -0.83462,1.863179 -1.86443,1.863179 -1.0298,0 -1.86443,-0.834065 -1.86443,-1.863179 0,-1.029114 0.83463,-1.863179 1.86443,-1.863179 1.02981,0 1.86443,0.834065 1.86443,1.863179"
           style="fill:#bcbddc;fill-opacity:1;fill-rule:nonzero;stroke:#000000;stroke-width:0.496104;stroke-dasharray:none;stroke-opacity:1"
           id="path234-3-4"
           clip-path="none"
           inkscape:label="n" /><path
           d="m 105.4468,95.989707 c 0,1.029114 -0.83462,1.86318 -1.86443,1.86318 -1.0298,0 -1.86443,-0.834066 -1.86443,-1.86318 0,-1.029113 0.83463,-1.863179 1.86443,-1.863179 1.02981,0 1.86443,0.834066 1.86443,1.863179"
           style="fill:#bcbddc;fill-opacity:1;fill-rule:nonzero;stroke:#000000;stroke-width:0.496104;stroke-dasharray:none;stroke-opacity:1"
           id="path234-3-7"
           clip-path="none"
           inkscape:label="n" /><path
           d="m 99.922185,89.652425 c 0,1.029114 -0.834624,1.863179 -1.864428,1.863179 -1.029803,0 -1.864427,-0.834065 -1.864427,-1.863179 0,-1.029114 0.834624,-1.86318 1.864427,-1.86318 1.029804,0 1.864428,0.834066 1.864428,1.86318"
           style="fill:#fc9272;fill-opacity:1;fill-rule:nonzero;stroke:#000000;stroke-width:0.496104;stroke-dasharray:none;stroke-opacity:1"
           id="path210-2-9"
           clip-path="none" /><path
           d="m 99.059434,96.532152 c 0,1.029114 -0.834625,1.863179 -1.864428,1.863179 -1.029803,0 -1.864428,-0.834065 -1.864428,-1.863179 0,-1.029114 0.834625,-1.86318 1.864428,-1.86318 1.029803,0 1.864428,0.834066 1.864428,1.86318"
           style="fill:#bcbddc;fill-opacity:1;fill-rule:nonzero;stroke:#000000;stroke-width:0.496104;stroke-dasharray:none;stroke-opacity:1"
           id="path234-3-5"
           clip-path="none"
           inkscape:label="n" /><path
           d="m 101.69902,96.91004 c 0,1.029114 -0.83462,1.86318 -1.864426,1.86318 -1.029803,0 -1.864427,-0.834066 -1.864427,-1.86318 0,-1.029114 0.834624,-1.863179 1.864427,-1.863179 1.029806,0 1.864426,0.834065 1.864426,1.863179"
           style="fill:#bcbddc;fill-opacity:1;fill-rule:nonzero;stroke:#000000;stroke-width:0.496104;stroke-dasharray:none;stroke-opacity:1"
           id="path234-3-75"
           clip-path="none"
           inkscape:label="n" /><path
           d="m 96.815442,93.07724 c 0,1.029115 -0.834624,1.86318 -1.864428,1.86318 -1.029803,0 -1.864427,-0.834065 -1.864427,-1.86318 0,-1.029113 0.834624,-1.863179 1.864427,-1.863179 1.029804,0 1.864428,0.834066 1.864428,1.863179"
           style="fill:#bcbddc;fill-opacity:1;fill-rule:nonzero;stroke:#000000;stroke-width:0.496104;stroke-dasharray:none;stroke-opacity:1"
           id="path234-3-06"
           clip-path="none"
           inkscape:label="n" /><path
           d="m 102.11659,89.272067 c 0,1.029114 -0.83462,1.863179 -1.86443,1.863179 -1.0298,0 -1.864425,-0.834065 -1.864425,-1.863179 0,-1.029114 0.834625,-1.863179 1.864425,-1.863179 1.02981,0 1.86443,0.834065 1.86443,1.863179"
           style="fill:#bcbddc;fill-opacity:1;fill-rule:nonzero;stroke:#000000;stroke-width:0.496104;stroke-dasharray:none;stroke-opacity:1"
           id="path234-3-0"
           clip-path="none"
           inkscape:label="n" /><path
           d="m 104.30159,89.974208 c 0,1.029114 -0.83462,1.863179 -1.86443,1.863179 -1.0298,0 -1.86443,-0.834065 -1.86443,-1.863179 0,-1.029114 0.83463,-1.86318 1.86443,-1.86318 1.02981,0 1.86443,0.834066 1.86443,1.86318"
           style="fill:#fc9272;fill-opacity:1;fill-rule:nonzero;stroke:#000000;stroke-width:0.496104;stroke-dasharray:none;stroke-opacity:1"
           id="path210"
           clip-path="none" /><path
           d="m 97.447556,91.107621 c 0,1.029114 -0.834624,1.863179 -1.864428,1.863179 -1.029803,0 -1.864427,-0.834065 -1.864427,-1.863179 0,-1.029114 0.834624,-1.86318 1.864427,-1.86318 1.029804,0 1.864428,0.834066 1.864428,1.86318"
           style="fill:#fc9272;fill-opacity:1;fill-rule:nonzero;stroke:#000000;stroke-width:0.496104;stroke-dasharray:none;stroke-opacity:1"
           id="path210-2-5"
           clip-path="none" /><path
           d="m 97.447556,95.241977 c 0,1.029114 -0.834624,1.863179 -1.864428,1.863179 -1.029803,0 -1.864427,-0.834065 -1.864427,-1.863179 0,-1.029114 0.834624,-1.86318 1.864427,-1.86318 1.029804,0 1.864428,0.834066 1.864428,1.86318"
           style="fill:#fc9272;fill-opacity:1;fill-rule:nonzero;stroke:#000000;stroke-width:0.496104;stroke-dasharray:none;stroke-opacity:1"
           id="path210-2-8"
           clip-path="none" /><path
           d="m 103.66996,97.586749 c 0,1.029114 -0.83462,1.863179 -1.86443,1.863179 -1.0298,0 -1.864423,-0.834065 -1.864423,-1.863179 0,-1.029114 0.834623,-1.86318 1.864423,-1.86318 1.02981,0 1.86443,0.834066 1.86443,1.86318"
           style="fill:#fc9272;fill-opacity:1;fill-rule:nonzero;stroke:#000000;stroke-width:0.496104;stroke-dasharray:none;stroke-opacity:1"
           id="path210-2-3-5"
           clip-path="none" /><path
           d="m 99.621989,92.050269 c 0,1.029114 -0.834624,1.863179 -1.864427,1.863179 -1.029804,0 -1.864428,-0.834065 -1.864428,-1.863179 0,-1.029114 0.834624,-1.863179 1.864428,-1.863179 1.029803,0 1.864427,0.834065 1.864427,1.863179"
           style="fill:#bcbddc;fill-opacity:1;fill-rule:nonzero;stroke:#000000;stroke-width:0.496104;stroke-dasharray:none;stroke-opacity:1"
           id="path234-3-8"
           clip-path="none"
           inkscape:label="n" /><path
           d="m 102.66613,94.562532 c 0,1.029113 -0.83463,1.863179 -1.86443,1.863179 -1.029802,0 -1.864427,-0.834066 -1.864427,-1.863179 0,-1.029114 0.834625,-1.86318 1.864427,-1.86318 1.0298,0 1.86443,0.834066 1.86443,1.86318"
           style="fill:#bcbddc;fill-opacity:1;fill-rule:nonzero;stroke:#000000;stroke-width:0.496104;stroke-dasharray:none;stroke-opacity:1"
           id="path234-3-47"
           clip-path="none"
           inkscape:label="n" /><path
           d="m 102.33065,92.272716 c 0,1.029114 -0.83462,1.863179 -1.86443,1.863179 -1.029802,0 -1.864426,-0.834065 -1.864426,-1.863179 0,-1.029114 0.834624,-1.863179 1.864426,-1.863179 1.02981,0 1.86443,0.834065 1.86443,1.863179"
           style="fill:#bcbddc;fill-opacity:1;fill-rule:nonzero;stroke:#000000;stroke-width:0.496104;stroke-dasharray:none;stroke-opacity:1"
           id="path234-3"
           clip-path="none"
           inkscape:label="n" /><path
           d="m 101.59293,93.429408 c 0,1.029114 -0.83462,1.863179 -1.864429,1.863179 -1.029803,0 -1.864427,-0.834065 -1.864427,-1.863179 0,-1.029114 0.834624,-1.86318 1.864427,-1.86318 1.029809,0 1.864429,0.834066 1.864429,1.86318"
           style="fill:#fc9272;fill-opacity:1;fill-rule:nonzero;stroke:#000000;stroke-width:0.496104;stroke-dasharray:none;stroke-opacity:1"
           id="path210-2-55"
           clip-path="none" /><path
           d="m 105.95049,93.780478 c 0,1.029114 -0.83463,1.863179 -1.86443,1.863179 -1.0298,0 -1.86443,-0.834065 -1.86443,-1.863179 0,-1.029114 0.83463,-1.86318 1.86443,-1.86318 1.0298,0 1.86443,0.834066 1.86443,1.86318"
           style="fill:#fc9272;fill-opacity:1;fill-rule:nonzero;stroke:#000000;stroke-width:0.496104;stroke-dasharray:none;stroke-opacity:1"
           id="path210-2-3"
           clip-path="none" /></g><ellipse
         style="fill:none;fill-opacity:1;stroke:#ffd42a;stroke-width:0.496229;stroke-dasharray:none;stroke-opacity:1"
         id="path7"
         cx="98.2285"
         cy="126.12407"
         rx="9.8423805"
         ry="29.463165"
         transform="translate(1.5,-32.69466)" /><ellipse
         style="fill:none;fill-opacity:1;stroke:#ffd42a;stroke-width:0.496229;stroke-dasharray:none;stroke-opacity:1"
         id="path7-9"
         cx="-60.649387"
         cy="148.52109"
         rx="9.8423805"
         ry="29.463165"
         transform="rotate(-60,-27.564407,-17.646368)" /><ellipse
         style="fill:none;fill-opacity:1;stroke:#ffd42a;stroke-width:0.496229;stroke-dasharray:none;stroke-opacity:1"
         id="path7-2"
         cx="158.94772"
         cy="-21.736629"
         rx="9.8423805"
         ry="29.463165"
         transform="rotate(60,29.064407,-15.048292)" /></g><g
       id="g7"
       transform="matrix(1.1338864,0,0,1.0207477,13.345234,-5.4708979)"
       inkscape:label="tower"
       style="stroke:#000000;stroke-width:0.983736;stroke-dasharray:none"><path
         id="path1"
         style="fill:#7a211f;fill-opacity:1;stroke:#000000;stroke-width:0.983736;stroke-dasharray:none"
         d="m 12.651591,44.163727 v 0.09767 2.34456 0.195336 l -10.5518107,6.057512 -0.097668,1.758549 2.5404134,-0.09767 c 0,0 -0.097656,1.563312 0.097669,2.833419 0.1954073,1.270106 0.9766846,6.057436 0.9766846,7.816061 0,1.758603 0.1953369,33.706719 0.1953369,36.051546 0,2.34481 0.1381113,56.02223 0.1381113,56.02223 0,0 20.4794065,0 20.4178735,0 0,0 -0.23371,-53.77513 -0.23371,-56.11993 0,-2.344828 0.19482,-34.292942 0.19482,-36.051545 0,-1.758624 0.781795,-6.545955 0.977201,-7.81606 0.195325,-1.270106 0.09767,-2.833419 0.09767,-2.833419 l 2.540413,0.09767 -0.09767,-1.758549 -10.551811,-6.057511 v -2.442228 -0.09767 z"
         sodipodi:nodetypes="ccccccccssccsscccccccc" /><path
         style="fill:#333333;fill-opacity:1;stroke:#000000;stroke-width:0.983736;stroke-dasharray:none"
         d="m 14.237802,73.619654 h 3.575683 V 61.965625 c 0,0 -0.615708,-2.400349 -1.76727,-2.400349 -1.274222,0 -1.91314,2.163155 -1.91314,2.163155 z"
         id="path3"
         sodipodi:nodetypes="cccccc" /><path
         style="fill:#374837;fill-opacity:1;stroke:#000000;stroke-width:0.983736;stroke-dasharray:none;stroke-opacity:1"
         d="m 30.066315,54.421766 -2.540412,-0.09767 -22.8616565,0.0977 -2.5404135,0.09767 0.097668,-1.758549 10.551811,-6.057512 v -2.637566 l 6.643523,-2.9e-5 v 2.539898 l 10.551809,6.057511 z"
         id="path8"
         transform="translate(-0.12172081,0.0978896)" /></g><g
       id="g5"
       inkscape:label="grackle"><path
         style="display:inline;fill:#1a1a1a;stroke:#000000;stroke-width:1.05833;stroke-dasharray:none;stroke-opacity:1"
         d="m -1.5000004,106.76993 c 0,0 14.0390384,-3.99278 18.9171524,-4.52882 11.985855,-1.31708 14.941626,-34.320338 45.326358,-34.190927 5.88709,0.02507 18.534815,3.082246 24.691413,3.397687 2.157447,0.110539 7.361182,12.977265 5.308094,12.820421 -1.286111,-0.09825 -8.750249,1.504924 -19.733364,14.979783 -6.508823,7.985486 -7.091556,10.691346 -8.827476,20.271816 -1.193302,11.90633 -5.289007,21.66679 -12.326719,31.19789 -2.109395,2.60425 -3.531639,4.35195 -3.531639,4.35195 H -2.0000005 Z"
         id="path2"
         sodipodi:nodetypes="csssssssssc" /><path
         id="path5"
         style="display:inline;fill:#333333;stroke:#000000;stroke-width:1.05833;stroke-dasharray:none;stroke-opacity:1"
         inkscape:label="path5"
         d="m 80.756066,70.784044 c 0,0 8.015973,0.575253 9.788912,0.766317 8.424215,0.907849 18.112262,0.448183 24.887522,5.905111 1.6918,1.36261 1.70903,2.819564 1.0387,2.636531 -1.00372,-0.274063 -3.57621,-0.157259 -4.5682,-0.129708 -2.19945,0.06109 -14.066835,3.239901 -19.160073,4.283977 -2.956998,0.606163 -11.799797,3.27921 -13.560379,2.551487 -1.38008,-0.570446 -1.385789,-7.356322 -1.543812,-8.627313 -0.230598,-1.854721 6.665291,-3.429613 3.123011,-7.374512 -0.0031,-0.0035 -0.0035,-0.0078 -0.0057,-0.01189 z"
         sodipodi:nodetypes="csssssssscc" /><ellipse
         style="fill:#edfae5;fill-opacity:1;stroke:#000000;stroke-width:1.05833;stroke-dasharray:none;stroke-opacity:1"
         id="path9"
         cx="61.618576"
         cy="76.735558"
         rx="4.8258319"
         ry="4.7508416" /><ellipse
         style="fill:#000000;stroke:none;stroke-width:2;stroke-dasharray:none;stroke-opacity:1"
         id="path6"
         cx="-61.618576"
         cy="76.735558"
         rx="2.4310417"
         ry="2.196969"
         transform="scale(-1,1)"
         inkscape:label="eye" /></g></g></svg>
