<?xml version="1.0" encoding="UTF-8" standalone="no"?>
<!-- Created with Inkscape (http://www.inkscape.org/) -->

<svg
   width="124.32357mm"
   height="124.32357mm"
   viewBox="0 0 124.32357 124.32357"
   version="1.1"
   id="svg1"
   xml:space="preserve"
   inkscape:version="1.3.2 (091e20e, 2023-11-25)"
   sodipodi:docname="grackle-only.svg"
   inkscape:export-filename="grackle.png"
   inkscape:export-xdpi="360"
   inkscape:export-ydpi="360"
   xmlns:inkscape="http://www.inkscape.org/namespaces/inkscape"
   xmlns:sodipodi="http://sodipodi.sourceforge.net/DTD/sodipodi-0.dtd"
   xmlns="http://www.w3.org/2000/svg"
   xmlns:svg="http://www.w3.org/2000/svg"><sodipodi:namedview
     id="namedview1"
     pagecolor="#505050"
     bordercolor="#eeeeee"
     borderopacity="1"
     inkscape:showpageshadow="0"
     inkscape:pageopacity="0"
     inkscape:pagecheckerboard="0"
     inkscape:deskcolor="#d1d1d1"
     inkscape:document-units="mm"
     inkscape:zoom="1.0399208"
     inkscape:cx="197.1304"
     inkscape:cy="242.32616"
     inkscape:window-width="1368"
     inkscape:window-height="793"
     inkscape:window-x="56"
     inkscape:window-y="25"
     inkscape:window-maximized="0"
     inkscape:current-layer="layer1"
     showgrid="false" /><defs
     id="defs1"><radialGradient
       fx="0"
       fy="0"
       cx="0"
       cy="0"
       r="1"
       gradientUnits="userSpaceOnUse"
       gradientTransform="matrix(19.348813,0,0,19.348813,-33.832438,77.29254)"
       spreadMethod="pad"
       id="radialGradient188"><stop
         style="stop-opacity:1;stop-color:#ffca00"
         offset="0"
         id="stop184" /><stop
         style="stop-color:#ffffff;stop-opacity:0;"
         offset="1"
         id="stop186" /></radialGradient><radialGradient
       fx="0"
       fy="0"
       cx="0"
       cy="0"
       r="1"
       gradientUnits="userSpaceOnUse"
       gradientTransform="matrix(19.348813,0,0,19.348813,-24.042854,48.188373)"
       spreadMethod="pad"
       id="radialGradient188-8"><stop
         style="stop-opacity:1;stop-color:#ffca00"
         offset="0"
         id="stop184-8" /><stop
         style="stop-color:#ffffff;stop-opacity:0;"
         offset="1"
         id="stop186-9" /></radialGradient><clipPath
       clipPathUnits="userSpaceOnUse"
       id="clipPath1"><rect
         style="fill:none;fill-opacity:0.739474;stroke:#000000;stroke-width:4;stroke-dasharray:none"
         id="rect2"
         width="114.32357"
         height="114.32357"
         x="14.71902"
         y="28.833775"
         inkscape:label="border"
         ry="26.747585" /></clipPath></defs><g
     inkscape:label="Layer 1"
     inkscape:groupmode="layer"
     id="layer1"
     transform="translate(-9.719017,-23.833775)"><rect
       style="fill:#b89090;fill-opacity:0.739474;stroke:none;stroke-width:10;stroke-dasharray:none"
       id="rect1-7"
       width="114.32357"
       height="114.32357"
       x="14.719017"
       y="28.833775"
       inkscape:label="red background"
       ry="26.747585" /><g
       id="g5"
       inkscape:label="grackle"
       clip-path="url(#clipPath1)"><path
         style="display:inline;fill:#1a1a1a;stroke:#000000;stroke-width:1.05833;stroke-dasharray:none;stroke-opacity:1"
         d="m -1.5000004,106.76993 c 0,0 14.0390384,-3.99278 18.9171524,-4.52882 11.985855,-1.31708 14.941626,-34.320338 45.326358,-34.190927 5.88709,0.02507 18.534815,3.082246 24.691413,3.397687 2.157447,0.110539 7.361182,12.977265 5.308094,12.820421 -1.286111,-0.09825 -8.750249,1.504924 -19.733364,14.979783 -6.508823,7.985486 -7.091556,10.691346 -8.827476,20.271816 -1.193302,11.90633 -5.289007,21.66679 -12.326719,31.19789 -2.109395,2.60425 -3.531639,4.35195 -3.531639,4.35195 H -2.0000005 Z"
         id="path2"
         sodipodi:nodetypes="csssssssssc" /><path
         id="path5"
         style="display:inline;fill:#333333;stroke:#000000;stroke-width:1.05833;stroke-dasharray:none;stroke-opacity:1"
         inkscape:label="path5"
         d="m 80.756066,70.784044 c 0,0 8.015973,0.575253 9.788912,0.766317 8.424215,0.907849 18.112262,0.448183 24.887522,5.905111 1.6918,1.36261 1.70903,2.819564 1.0387,2.636531 -1.00372,-0.274063 -3.57621,-0.157259 -4.5682,-0.129708 -2.19945,0.06109 -14.066835,3.239901 -19.160073,4.283977 -2.956998,0.606163 -11.799797,3.27921 -13.560379,2.551487 -1.38008,-0.570446 -1.385789,-7.356322 -1.543812,-8.627313 -0.230598,-1.854721 6.665291,-3.429613 3.123011,-7.374512 -0.0031,-0.0035 -0.0035,-0.0078 -0.0057,-0.01189 z"
         sodipodi:nodetypes="csssssssscc" /><ellipse
         style="fill:#edfae5;fill-opacity:1;stroke:#000000;stroke-width:1.05833;stroke-dasharray:none;stroke-opacity:1"
         id="path9"
         cx="61.618576"
         cy="76.735558"
         rx="4.8258319"
         ry="4.7508416" /><ellipse
         style="fill:#000000;stroke:none;stroke-width:2;stroke-dasharray:none;stroke-opacity:1"
         id="path6"
         cx="-61.618576"
         cy="76.735558"
         rx="2.4310417"
         ry="2.196969"
         transform="scale(-1,1)"
         inkscape:label="eye" /></g><rect
       style="fill:none;fill-opacity:0.739474;stroke:#000000;stroke-width:10;stroke-dasharray:none"
       id="rect1-7-4"
       width="114.32357"
       height="114.32357"
       x="14.719017"
       y="28.833775"
       inkscape:label="border"
       ry="26.747585"
       inkscape:transform-center-x="-52.920699"
       inkscape:transform-center-y="19.845262" /></g></svg>
