<?xml version="1.0" encoding="UTF-8" standalone="no"?>
<!-- Created with Inkscape (http://www.inkscape.org/) -->

<svg
   width="200mm"
   height="100mm"
   viewBox="0 0 166.66667 83.333333"
   version="1.1"
   id="svg5"
   sodipodi:docname="ice-climate.svg"
   inkscape:version="1.3.2 (091e20e, 2023-11-25)"
   inkscape:export-filename="png/ice-shelf-advance-g.png"
   inkscape:export-xdpi="96"
   inkscape:export-ydpi="96"
   xml:space="preserve"
   xmlns:inkscape="http://www.inkscape.org/namespaces/inkscape"
   xmlns:sodipodi="http://sodipodi.sourceforge.net/DTD/sodipodi-0.dtd"
   xmlns="http://www.w3.org/2000/svg"
   xmlns:svg="http://www.w3.org/2000/svg"><sodipodi:namedview
     id="namedview7"
     pagecolor="#505050"
     bordercolor="#eeeeee"
     borderopacity="1"
     inkscape:showpageshadow="0"
     inkscape:pageopacity="0"
     inkscape:pagecheckerboard="0"
     inkscape:deskcolor="#505050"
     inkscape:document-units="mm"
     showgrid="false"
     inkscape:zoom="0.79702668"
     inkscape:cx="388.94557"
     inkscape:cy="292.33651"
     inkscape:window-width="1744"
     inkscape:window-height="1027"
     inkscape:window-x="57"
     inkscape:window-y="25"
     inkscape:window-maximized="0"
     inkscape:current-layer="layer1" /><defs
     id="defs2" /><g
     inkscape:groupmode="layer"
     id="layer3"
     inkscape:label="interglacial"
     transform="translate(-228.77302,-1.1283504)"
     style="display:inline" /><g
     inkscape:groupmode="layer"
     id="layer1"
     inkscape:label="glacial"
     style="display:inline"
     transform="translate(-194.21365,5.0398803)"><path
       id="rect236-7-7"
       style="display:inline;fill:#285994;fill-opacity:1;stroke:#ffffff;stroke-width:0.946265;stroke-linejoin:round;stroke-dasharray:none;stroke-opacity:1"
       d="m 197.10345,43.410406 h 61.41559 35.03632 v 32.129229 h -96.45191 z"
       sodipodi:nodetypes="cccccc" /><path
       id="rect1235"
       style="fill:#e0faff;stroke:#ffffff;stroke-width:1.05446;stroke-linejoin:round;stroke-dasharray:none"
       d="m 246.379,40.544675 c 0.0155,0.108437 19.79713,-0.156376 30.29151,-0.2779 C 304.47345,34.987563 313.80407,9.3841735 357.2935,7.8527518 V 48.014437 H 246.379 Z"
       sodipodi:nodetypes="cccccc" /></g><path
     id="rect236"
     style="display:inline;fill:#483e37;fill-opacity:1;stroke:#ffffff;stroke-width:0.999997;stroke-linejoin:round;stroke-dasharray:none;stroke-opacity:1"
     d="M 2.9359697,79.397422 C 8.8679674,78.925214 64.944138,82.818532 98.525282,51.331625 104.98309,49.111209 163.07988,48.4981 163.07988,48.4981 V 82.833335 L 2.9359697,82.809185 Z"
     sodipodi:nodetypes="cccccc" /><path
     id="path2588"
     style="fill:#ececec;stroke:#ffffff;stroke-width:0.999988;stroke-linejoin:round;stroke-dasharray:none"
     d="m 63.794117,17.282146 c 0.377795,6.815246 -4.624386,9.995934 -21.258751,9.995934 -16.634354,0 -21.68747,-2.478496 -21.68747,-9.308853 0,-3.803364 8.043692,-1.40121 8.043692,-1.40121 0,0 7.558159,-9.9356284 14.929975,-9.9356284 6.732863,0 9.104895,7.0777824 9.104895,7.0777824 0,0 10.304696,-6.5836144 10.867659,3.571975 z"
     sodipodi:nodetypes="ssscscs" /></svg>
