<?xml version="1.0" encoding="UTF-8" standalone="no"?>
<!-- Created with Inkscape (http://www.inkscape.org/) -->

<svg
   width="200mm"
   height="100mm"
   viewBox="0 0 166.66667 83.333333"
   version="1.1"
   id="svg5"
   sodipodi:docname="lakes-climate.svg"
   inkscape:version="1.3.2 (091e20e, 2023-11-25)"
   inkscape:export-filename="png/ice-shelf-advance-g.png"
   inkscape:export-xdpi="96"
   inkscape:export-ydpi="96"
   xml:space="preserve"
   xmlns:inkscape="http://www.inkscape.org/namespaces/inkscape"
   xmlns:sodipodi="http://sodipodi.sourceforge.net/DTD/sodipodi-0.dtd"
   xmlns="http://www.w3.org/2000/svg"
   xmlns:svg="http://www.w3.org/2000/svg"><sodipodi:namedview
     id="namedview7"
     pagecolor="#505050"
     bordercolor="#eeeeee"
     borderopacity="1"
     inkscape:showpageshadow="0"
     inkscape:pageopacity="0"
     inkscape:pagecheckerboard="0"
     inkscape:deskcolor="#505050"
     inkscape:document-units="mm"
     showgrid="false"
     inkscape:zoom="1.8027545"
     inkscape:cx="394.95118"
     inkscape:cy="298.98692"
     inkscape:window-width="1464"
     inkscape:window-height="921"
     inkscape:window-x="0"
     inkscape:window-y="33"
     inkscape:window-maximized="0"
     inkscape:current-layer="svg5" /><defs
     id="defs2" /><g
     inkscape:groupmode="layer"
     id="layer3"
     inkscape:label="interglacial"
     transform="translate(-228.77302,-1.1283504)"
     style="display:inline" /><g
     inkscape:groupmode="layer"
     id="layer1"
     inkscape:label="glacial"
     style="display:inline"
     transform="translate(-194.21365,5.0398803)"><path
       id="rect236-7-7"
       style="display:inline;fill:#285994;fill-opacity:1;stroke:#ffffff;stroke-width:0.946264;stroke-linejoin:round;stroke-dasharray:none;stroke-opacity:1"
       d="m 197.56721,38.948485 h 102.00116 58.18955 V 72.858402 H 197.56721 Z"
       sodipodi:nodetypes="cccccc" /><g
       id="g1"
       transform="translate(-1.3831581,-50.847599)"><rect
         style="fill:#8a916f;stroke:#ffffff;stroke-width:0.293981;stroke-dasharray:none;stroke-dashoffset:0;stroke-opacity:1;paint-order:markers fill stroke"
         id="rect1"
         width="88.670647"
         height="2.5972183"
         x="234.71039"
         y="-120.16142"
         transform="scale(1,-1)" /><rect
         style="display:inline;fill:#e9ddaf;stroke:#ffffff;stroke-width:0.293981;stroke-dasharray:none;stroke-dashoffset:0;stroke-opacity:1;paint-order:markers fill stroke"
         id="rect1-7"
         width="88.670647"
         height="2.5017951"
         x="234.71039"
         y="115.06241" /><rect
         style="display:inline;fill:#8a916f;stroke:#ffffff;stroke-width:0.293981;stroke-dasharray:none;stroke-dashoffset:0;stroke-opacity:1;paint-order:markers fill stroke"
         id="rect1-5"
         width="88.670647"
         height="2.5972183"
         x="234.71039"
         y="-110.12167"
         transform="scale(1,-1)" /><rect
         style="display:inline;fill:#e9ddaf;stroke:#ffffff;stroke-width:0.293981;stroke-dasharray:none;stroke-dashoffset:0;stroke-opacity:1;paint-order:markers fill stroke"
         id="rect1-7-8"
         width="88.670647"
         height="2.5017951"
         x="234.71039"
         y="105.02267" /><rect
         style="display:inline;fill:#8a916f;stroke:#ffffff;stroke-width:0.293981;stroke-dasharray:none;stroke-dashoffset:0;stroke-opacity:1;paint-order:markers fill stroke"
         id="rect1-6"
         width="88.670647"
         height="2.5972183"
         x="234.71039"
         y="-115.22069"
         transform="scale(1,-1)" /><rect
         style="display:inline;fill:#e9ddaf;stroke:#ffffff;stroke-width:0.293981;stroke-dasharray:none;stroke-dashoffset:0;stroke-opacity:1;paint-order:markers fill stroke"
         id="rect1-7-5"
         width="88.670647"
         height="2.5017951"
         x="234.71039"
         y="110.12167" /></g><path
       style="display:inline;fill:#338000;stroke:none;stroke-width:0.293981;stroke-dasharray:none;stroke-dashoffset:0;stroke-opacity:1;paint-order:markers fill stroke"
       d="m 332.85005,42.726932 0.0827,-9.742023 0.41346,6.191193 0.41347,-6.0091 0.5375,5.280724 0.33076,-5.553866 0.37213,5.553866 0.74423,-6.100145 0.53751,6.191192 0.86828,-7.010616 -0.0827,6.555381 1.40578,-7.283757 v 6.191193 l 0.53749,-5.735957 0.0827,6.191192 0.37212,-4.279207 0.33078,4.188159 0.74424,-3.915018 -0.0413,3.55083 0.99231,-6.464333 -0.0413,6.373286 1.07502,-5.553863 -0.1473,11.198774 z"
       id="path2-3"
       sodipodi:nodetypes="cccccccccccccccccccccccc" /><path
       style="display:inline;fill:#338000;stroke:none;stroke-width:0.293981;stroke-dasharray:none;stroke-dashoffset:0;stroke-opacity:1;paint-order:markers fill stroke"
       d="m 347.7962,42.726932 0.0827,-9.742023 0.41346,6.191193 0.41347,-6.009101 0.5375,5.280724 0.33076,-5.553865 0.37213,5.553865 0.74423,-6.100144 0.53751,6.191192 0.86829,-7.010616 -0.0827,6.55538 1.40578,-7.283757 v 6.191193 l 0.53749,-5.735957 0.0827,6.191193 0.37212,-4.279208 0.33078,4.18816 0.74424,-3.915018 -0.0413,3.55083 0.9923,-6.464333 -0.0413,6.373286 1.07502,-5.553863 -0.14729,11.198774 z"
       id="path2-3-6"
       sodipodi:nodetypes="cccccccccccccccccccccccc" /><path
       style="display:inline;fill:#338000;stroke:none;stroke-width:0.293981;stroke-dasharray:none;stroke-dashoffset:0;stroke-opacity:1;paint-order:markers fill stroke"
       d="m 340.64599,42.726932 0.0827,-9.742023 0.41346,6.191193 0.41347,-6.009101 0.5375,5.280724 0.33076,-5.553865 0.37213,5.553865 0.74423,-6.100144 0.53751,6.191192 0.86829,-7.010616 -0.0827,6.55538 1.40578,-7.283757 v 6.191193 l 0.53749,-5.735957 0.0827,6.191193 0.37212,-4.279208 0.33078,4.18816 0.74424,-3.915018 -0.0413,3.55083 0.9923,-6.464333 -0.0413,6.373286 1.07502,-5.553863 -0.14729,11.198774 z"
       id="path2-3-6-8"
       sodipodi:nodetypes="cccccccccccccccccccccccc" /><path
       style="display:inline;fill:#338000;stroke:none;stroke-width:0.293981;stroke-dasharray:none;stroke-dashoffset:0;stroke-opacity:1;paint-order:markers fill stroke"
       d="m 199.43787,42.726932 0.0827,-9.742023 0.41346,6.191193 0.41347,-6.009101 0.5375,5.280725 0.33076,-5.553865 0.37214,5.553865 0.74423,-6.100145 0.53751,6.191192 0.86828,-7.010616 -0.0827,6.555381 1.40578,-7.283758 v 6.191193 l 0.53749,-5.735957 0.0827,6.191193 0.37212,-4.279208 0.33078,4.18816 0.74424,-3.915018 -0.0413,3.55083 0.99231,-6.464333 -0.0413,6.373286 1.07502,-5.553863 -0.1473,11.198774 z"
       id="path2-3-1"
       sodipodi:nodetypes="cccccccccccccccccccccccc" /><path
       style="display:inline;fill:#338000;stroke:none;stroke-width:0.293981;stroke-dasharray:none;stroke-dashoffset:0;stroke-opacity:1;paint-order:markers fill stroke"
       d="m 218.23426,42.726932 -0.0827,-9.742023 -0.41346,6.191193 -0.41347,-6.009101 -0.5375,5.280724 -0.33076,-5.553865 -0.37213,5.553865 -0.74423,-6.100144 -0.53751,6.191192 -0.86829,-7.010616 0.0827,6.55538 -1.40578,-7.283757 v 6.191193 l -0.53749,-5.735957 -0.0827,6.191193 -0.37212,-4.279208 -0.33078,4.18816 -0.74424,-3.915018 0.0413,3.55083 -0.9923,-6.464333 0.0413,6.373286 -1.07502,-5.553863 0.14729,11.198774 z"
       id="path2-3-6-5"
       sodipodi:nodetypes="cccccccccccccccccccccccc" /></g><path
     id="rect236"
     style="display:inline;fill:#483e37;fill-opacity:1;stroke:#ffffff;stroke-width:0.999997;stroke-linejoin:round;stroke-dasharray:none;stroke-opacity:1"
     d="m 24.039671,43.515231 c 21.55329,2.983097 28.095873,30.838473 59.409236,30.838473 34.125943,-0.187505 33.183033,-30.365341 55.683653,-30.365341 h 24.43447 l -0.0462,34.383049 -160.1439081,-0.02415 -0.04616,-34.358899 z"
     sodipodi:nodetypes="cccccccc" /><path
     id="path2588"
     style="fill:#ececec;stroke:#ffffff;stroke-width:0.999988;stroke-linejoin:round;stroke-dasharray:none"
     d="m 151.46831,16.467482 c 0.37779,6.815246 -4.62439,9.995934 -21.25875,9.995934 -16.63436,0 -21.68747,-2.478496 -21.68747,-9.308853 0,-3.803364 8.04369,-1.40121 8.04369,-1.40121 0,0 7.55816,-9.9356279 14.92997,-9.9356279 6.73287,0 9.1049,7.0777819 9.1049,7.0777819 0,0 10.3047,-6.5836139 10.86766,3.571975 z"
     sodipodi:nodetypes="ssscscs" /><circle
     style="fill:#fdff7e;fill-opacity:1;stroke:none;stroke-width:0.293981;stroke-dasharray:none;stroke-dashoffset:0;stroke-opacity:1;paint-order:markers fill stroke"
     id="path2"
     cx="35.793381"
     cy="13.833996"
     r="5.9189997" /></svg>
