<?xml version="1.0" encoding="UTF-8" standalone="no"?>
<!-- Generator: Adobe Illustrator 27.9.6, SVG Export Plug-In . SVG Version: 9.03 Build 54986)  -->

<svg
   version="1.1"
   x="0px"
   y="0px"
   viewBox="0 0 200 100"
   xml:space="preserve"
   id="svg174"
   sodipodi:docname="sediment.svg"
   width="200"
   height="100"
   inkscape:version="1.3.2 (091e20e, 2023-11-25)"
   xmlns:inkscape="http://www.inkscape.org/namespaces/inkscape"
   xmlns:sodipodi="http://sodipodi.sourceforge.net/DTD/sodipodi-0.dtd"
   xmlns="http://www.w3.org/2000/svg"
   xmlns:svg="http://www.w3.org/2000/svg"><defs
   id="defs174">
	
	
	
	
	
	
		<linearGradient
   id="SVGID_00000001639088065669416030000016077655166167325584_"
   gradientUnits="userSpaceOnUse"
   x1="-1.7701"
   y1="236.41949"
   x2="186.4462"
   y2="236.41949">
		<stop
   offset="0"
   style="stop-color:#E2ECF1;stop-opacity:0"
   id="stop36" />
		<stop
   offset="0.4335"
   style="stop-color:#BE1E2D;stop-opacity:0.6"
   id="stop37" />
	</linearGradient>
	
		
	
	
		<linearGradient
   id="SVGID_00000183216504986854234790000004149465683054649238_"
   gradientUnits="userSpaceOnUse"
   x1="-0.2701"
   y1="237.6611"
   x2="185.9817"
   y2="237.6611">
		<stop
   offset="0"
   style="stop-color:#E2ECF1;stop-opacity:0"
   id="stop38" />
		<stop
   offset="0.4252"
   style="stop-color:#009EDB"
   id="stop39" />
	</linearGradient>
	
		
	
	
	
	
	
	
	
	

		
		
		
		
		
		
		
		
		
		
		
		
		
		
		
		
		
		
		
		
		
		
		
		
		
		
		
		
		
		
		
		
		
		
		
		
		
		
		
		
		
		
		
		
		
		
		
	</defs><sodipodi:namedview
   id="namedview174"
   pagecolor="#505050"
   bordercolor="#ffffff"
   borderopacity="1"
   inkscape:showpageshadow="0"
   inkscape:pageopacity="0"
   inkscape:pagecheckerboard="1"
   inkscape:deskcolor="#505050"
   inkscape:zoom="3.9912381"
   inkscape:cx="23.802138"
   inkscape:cy="46.226258"
   inkscape:window-width="2208"
   inkscape:window-height="1066"
   inkscape:window-x="0"
   inkscape:window-y="25"
   inkscape:window-maximized="0"
   inkscape:current-layer="svg174" />
<style
   type="text/css"
   id="style1">
	.st0{display:none;}
	.st1{display:inline;}
	.st2{display:inline;fill:#754C29;}
	.st3{fill:#754C29;}
	.st4{display:inline;fill:none;stroke:url(#SVGID_1_);stroke-width:2;stroke-linecap:round;stroke-miterlimit:10;}
	
		.st5{display:inline;fill:none;stroke:url(#SVGID_00000045614166881304272140000005195846020905496760_);stroke-width:5;stroke-linecap:round;stroke-miterlimit:10;}
	.st6{fill:#E2ECF1;}
	.st7{fill:url(#SVGID_00000055701844882440774030000005271364821779064233_);}
	.st8{fill:#C49A6C;stroke:#000000;stroke-miterlimit:10;}
	.st9{fill:#754C29;stroke:#000000;stroke-miterlimit:10;}
	.st10{fill:none;stroke:#000000;stroke-width:2;stroke-miterlimit:10;}
	.st11{fill:none;stroke:#F1F2F2;stroke-miterlimit:10;}
	.st12{fill:url(#SVGID_00000180346154225266010970000008579524022531876798_);stroke:#000000;stroke-miterlimit:10;}
	.st13{fill:none;stroke:#D1D3D4;stroke-miterlimit:10;}
	.st14{fill:none;stroke:#000000;stroke-miterlimit:10;}
	.st15{fill:#1C75BC;stroke:#000000;stroke-width:0.8504;stroke-miterlimit:10;}
	.st16{fill:#E2ECF1;stroke:#000000;stroke-miterlimit:10;}
	.st17{fill:#D2232A;}
	.st18{display:none;fill:#A7A7B5;stroke:#000000;stroke-miterlimit:10;}
	
		.st19{fill:none;stroke:url(#SVGID_00000053518666531349939620000007597743936915976349_);stroke-width:5;stroke-linecap:round;stroke-miterlimit:10;}
	
		.st20{fill:none;stroke:url(#SVGID_00000087400612684584486960000002539188756918174878_);stroke-width:2;stroke-linecap:round;stroke-miterlimit:10;}
	.st21{fill:#0084B6;}
	.st22{fill:#1C75BC;}
	.st23{fill:url(#SVGID_00000158728617165555551850000001265433530633042339_);}
	.st24{fill:none;}
	.st25{fill:#F1F2F2;}
	.st26{font-family:'MyriadPro-Regular';}
	.st27{font-size:9px;}
	.st28{font-size:10px;}
	.st29{fill:url(#SVGID_00000060739210767000194790000017176490573174605750_);stroke:#000000;stroke-miterlimit:10;}
	.st30{fill:#FFFFFF;}
	.st31{font-size:8px;}
	.st32{letter-spacing:22;}
	.st33{letter-spacing:35;}
	.st34{fill:none;stroke:#939598;stroke-miterlimit:10;}
	.st35{display:none;fill:#C49A6C;stroke:#000000;stroke-miterlimit:10;}
	.st36{fill:#27AAE1;}
	.st37{fill:#BE1E2D;}
</style>



<rect
   x="4.1557379"
   y="0.49999699"
   class="st21"
   width="175.84607"
   height="99"
   id="rect43"
   style="fill:#b7c8c4;fill-opacity:0.384921;stroke:#ffffff;stroke-width:0.999994" /><path
   id="rect86"
   style="fill:#754c29;stroke:#ffffff;stroke-width:0.5;stroke-miterlimit:10;stroke-dasharray:none"
   class="st9"
   d="m 4.1792838,77.229732 6.6193752,0.56028 5.134788,-3.748951 6.773872,0.550745 c 2.297375,0.849938 2.654834,4.253911 2.654834,4.253911 0,0 28.903763,-5.604815 29.985227,-5.490557 2.259067,0.238675 6.462486,9.215885 7.978777,8.476623 0,0 11.546503,-6.851521 11.150114,-3.756427 -0.80143,6.25775 4.861023,-4.815135 13.601955,3.440343 3.44693,-6.073955 7.288537,-5.141827 9.609547,-2.730762 0.45404,0.47166 14.374347,11.742262 14.374347,11.742262 1.39972,18.468361 19.25766,-34.608804 20.49324,-33.554599 0,0 19.38673,17.917479 21.37169,14.404866 4.66081,-0.843528 7.30906,5.897427 12.62606,5.897427 5.10836,0 13.21682,-0.04516 13.21682,-0.04516 V 99.320246 H 4.1792838 Z"
   sodipodi:nodetypes="cccccscscscccscccc" /><path
   class="st9"
   d="m 47.903036,30.492564 c -3.227453,2.529243 -6.737603,5.273741 -5.653933,6.672896 1.554831,1.991107 13.121835,1.883479 16.514196,-2.663776 2.28513,-3.06738 0.541834,-7.722264 -2.355806,-8.341122 -2.332247,-0.51123 -5.08854,1.668226 -8.504457,4.332002 z"
   id="path44"
   style="stroke:#ffffff;stroke-width:0.5;stroke-dasharray:none" /><path
   class="st9"
   d="m 30.557783,31.2076 c -0.848091,2.798311 -0.02356,6.968871 2.096665,8.287306 4.593821,2.825218 15.030038,-8.098959 13.757903,-11.569941 C 45.234448,24.669236 32.654448,24.400168 30.557783,31.2076 Z"
   id="path45"
   style="stroke:#ffffff;stroke-width:0.5;stroke-dasharray:none" /><path
   class="st9"
   d="m 18.054984,30.358031 c -0.942323,1.748944 -1.083671,4.870137 0,6.269293 2.332247,3.040472 10.294868,-2.206361 10.059287,-4.923952 -0.212022,-2.529243 -7.750599,-5.62353 -10.059287,-1.345341 z"
   id="path46"
   style="stroke:#ffffff;stroke-width:0.5;stroke-dasharray:none" /><path
   class="st9"
   d="m 6.7806848,54.439713 c -0.942322,1.748944 -1.08367,4.870138 0,6.269294 2.332247,3.040472 10.2948692,-2.206361 10.0592892,-4.923952 -0.212023,-2.55615 -7.7506002,-5.650436 -10.0592892,-1.345342 z"
   id="path47"
   style="stroke:#ffffff;stroke-width:0.5;stroke-dasharray:none" /><path
   class="st9"
   d="m 5.0789075,31.634759 c 0.706742,-2.098735 5.5125845,-3.094288 8.1039715,-0.753391 0.777416,0.699577 1.177903,1.69513 1.978876,3.65933 1.272135,3.094286 2.025992,4.950858 1.319251,6.403828 -0.895206,1.856572 -3.604382,1.829665 -4.381799,1.829665 -0.306254,0 -3.8164045,-0.107627 -5.1827715,-2.744498 -0.447603,-0.861019 -0.188464,-1.076273 -0.659625,-3.363355 -0.706742,-3.551703 -1.507716,-4.036026 -1.177903,-5.031579 z"
   id="path48"
   style="stroke:#ffffff;stroke-width:0.5;stroke-dasharray:none" /><path
   class="st9"
   d="m 62.386108,36.318028 c -1.413484,1.399155 -5.748165,5.596623 -2.614944,7.802984 2.991873,2.071826 10.601124,0.861018 11.943932,0.618857 1.69618,-0.269068 7.232323,-1.156994 10.082847,-4.224374 2.355803,-2.502336 2.991873,-6.565269 -1.130785,-8.421842 -3.321686,-1.506783 -8.056855,-0.780299 -8.952062,-0.618857 -5.159213,0.780297 -7.72704,3.282636 -9.328988,4.843232 z"
   id="path49"
   style="stroke:#ffffff;stroke-width:0.5;stroke-dasharray:none" /><path
   class="st9"
   d="m 125.50326,18.59974 c 0.89519,-1.156994 3.62793,-4.68179 1.64906,-6.511455 -1.88464,-1.748945 -6.69049,-0.699578 -7.53858,-0.538137 -1.0601,0.215255 -4.57026,0.968646 -6.36067,3.524797 -1.48416,2.098732 -1.88465,5.488994 0.70674,7.049591 2.09666,1.237715 5.08853,0.645764 5.65393,0.538137 3.27457,-0.672671 4.87651,-2.771405 5.88952,-4.062933 z"
   id="path50"
   style="stroke:#ffffff;stroke-width:0.5;stroke-dasharray:none" /><path
   class="st9"
   d="M 38.413555,20.78891 C 39.82704,18.797804 44.161721,12.743766 41.0285,9.5956643 38.036626,6.609005 30.427377,8.3848564 29.084568,8.6808316 c -1.69618,0.4036026 -7.232323,1.6682244 -10.082847,6.0540394 -2.355806,3.605517 -2.991872,9.444301 1.130786,12.081172 3.321686,2.152548 8.056854,1.10318 8.952061,0.914832 5.182771,-1.130087 7.72704,-4.708698 9.328987,-6.941965 z"
   id="path51"
   style="stroke:#ffffff;stroke-width:0.5;stroke-dasharray:none" /><path
   class="st9"
   d="m 130.83291,48.142938 c 1.24857,-2.098733 9.61168,-3.094287 14.13483,-0.753391 1.34281,0.699578 2.04954,1.695131 3.48659,3.659331 2.21445,3.094285 3.55726,4.950857 2.30868,6.403827 -1.57839,1.856572 -6.31355,1.829665 -7.65636,1.829665 -0.54184,0 -6.64337,-0.107627 -9.0463,-2.744498 -0.75385,-0.861019 -0.35336,-1.076273 -1.15434,-3.363355 -1.24858,-3.578609 -2.6385,-4.062933 -2.0731,-5.031579 z"
   id="path52"
   style="stroke:#ffffff;stroke-width:0.5;stroke-dasharray:none" /><path
   class="st9"
   d="m 6.1930138,29.653682 c -1.225019,-1.641317 -0.141349,-10.090064 2.473595,-14.072277 0.777416,-1.183901 1.6255052,-1.69513 3.3216852,-2.690684 2.662061,-1.560597 4.264009,-2.502336 5.017866,-0.995553 0.989439,1.937292 -0.04712,6.592176 -0.329813,7.883705 -0.117789,0.538136 -1.484157,6.538362 -3.863521,8.341119 -0.753857,0.591951 -0.824532,0.134535 -2.614943,0.457417 -2.8034092,0.591951 -3.4394762,1.856572 -4.0048692,1.076273 z"
   id="path53"
   style="stroke:#ffffff;stroke-width:0.5;stroke-dasharray:none" /><path
   class="st9"
   d="m 22.369725,66.106461 c -1.225019,-1.641317 -0.141348,-10.090064 2.473595,-14.072277 0.777415,-1.183901 1.625506,-1.69513 3.321685,-2.690684 2.66206,-1.560597 4.264008,-2.502336 5.017865,-0.995553 0.989439,1.937292 -0.04712,6.592175 -0.329813,7.883704 -0.117789,0.538137 -1.484157,6.538362 -3.863519,8.34112 -0.753858,0.591951 -0.824533,0.134535 -2.614944,0.457417 -2.803409,0.565043 -3.439476,1.829664 -4.004869,1.076273 z"
   id="path54"
   style="stroke:#ffffff;stroke-width:0.5;stroke-dasharray:none" /><path
   class="st9"
   d="m 51.224722,22.285978 c 3.651497,-1.641318 7.60925,-3.417169 6.831834,-5.03158 -1.130786,-2.340895 -12.415094,-5.219927 -16.608427,-1.641317 -2.826967,2.394709 -2.049551,7.372474 0.659625,8.717816 2.143784,1.076274 5.253446,-0.322882 9.116968,-2.044919 z"
   id="path55"
   style="stroke:#ffffff;stroke-width:0.5;stroke-dasharray:none" /><path
   class="st9"
   d="m 85.643036,27.855695 c -1.50772,2.394708 -1.719737,6.699802 0,8.610188 3.72217,4.170561 16.396404,-3.013566 16.043024,-6.753616 -0.35337,-3.497891 -12.367964,-7.749172 -16.043024,-1.856572 z"
   id="path56"
   style="stroke:#ffffff;stroke-width:0.5;stroke-dasharray:none" /><path
   class="st9"
   d="m 8.5139718,65.067854 c -1.507715,2.394708 -1.719738,6.699803 0,8.610188 3.7221722,4.17056 16.3964062,-3.013565 16.0430342,-6.753616 -0.353372,-3.49789 -12.391535,-7.74917 -16.0430342,-1.856572 z"
   id="path57"
   style="stroke:#ffffff;stroke-width:0.5;stroke-dasharray:none" /><path
   class="st9"
   d="m 114.50164,33.183249 c 3.53371,1.937292 7.37368,4.036026 7.89195,2.260174 0.7303,-2.529243 -5.13566,-13.910838 -10.2713,-14.987111 -3.46304,-0.726485 -6.12511,3.336448 -5.13566,6.511457 0.75385,2.529243 3.79284,4.170559 7.51501,6.21548 z"
   id="path58"
   style="stroke:#ffffff;stroke-width:0.5;stroke-dasharray:none" /><path
   class="st9"
   d="m 83.334347,25.030474 c -1.460599,-0.699577 -2.143783,-5.435181 -0.518277,-7.964424 0.494719,-0.753392 1.177903,-1.156994 2.544266,-1.964199 2.14379,-1.264621 3.43948,-1.991107 4.45248,-1.318436 1.29569,0.887926 1.27213,3.551704 1.27213,4.305095 0,0.322882 -0.0707,3.740051 -1.9082,5.112299 -0.58895,0.43051 -0.7303,0.188348 -2.33225,0.645765 -2.47359,0.726485 -2.826965,1.506782 -3.510149,1.1839 z"
   id="path59"
   style="stroke:#ffffff;stroke-width:0.5;stroke-dasharray:none" /><path
   class="st9"
   d="m 116.47979,48.956378 c 1.79041,-2.744498 8.29244,-1.883479 10.57757,2.744496 0.68318,1.399157 0.77741,3.013567 0.98943,6.269295 0.30626,5.112299 0.49472,8.179679 -1.01299,9.95553 -1.93177,2.287082 -5.34768,0.941739 -6.31355,0.565044 -0.4005,-0.161441 -4.78229,-1.964199 -5.3948,-6.457642 -0.18847,-1.452969 0.21202,-1.641317 0.5654,-5.19302 0.56538,-5.542809 -0.23559,-6.619082 0.58894,-7.883703 z"
   id="path60"
   style="stroke:#ffffff;stroke-width:0.5;stroke-dasharray:none" /><path
   class="st9"
   d="m 23.567568,47.90129 c -1.460599,-0.699578 -2.143783,-5.435182 -0.518277,-7.964425 0.494719,-0.753391 1.177902,-1.156993 2.54427,-1.964199 2.143781,-1.264621 3.439474,-1.991106 4.45247,-1.318435 1.295693,0.887926 1.272136,3.551703 1.272136,4.305095 0,0.322882 -0.07068,3.74005 -1.908203,5.112299 -0.588951,0.430509 -0.7303,0.188348 -2.332246,0.645764 -2.497154,0.726484 -2.850525,1.506783 -3.51015,1.183901 z"
   id="path61"
   style="stroke:#ffffff;stroke-width:0.5;stroke-dasharray:none" /><path
   class="st9"
   d="m 14.834235,51.732251 c -1.4606,-0.699578 -2.143783,-5.435182 -0.518277,-7.964425 0.494719,-0.753391 1.177902,-1.156994 2.544269,-1.964199 2.143784,-1.264621 3.439476,-1.991106 4.452472,-1.318435 1.295694,0.887925 1.272135,3.551703 1.272135,4.305094 0,0.322882 -0.07068,3.740051 -1.908202,5.1123 -0.588951,0.430509 -0.730299,0.188347 -2.332247,0.645764 -2.497154,0.726485 -2.826967,1.506783 -3.51015,1.183901 z"
   id="path62"
   style="stroke:#ffffff;stroke-width:0.5;stroke-dasharray:none" /><path
   class="st9"
   d="m 123.90131,39.210381 c -1.4606,-0.699578 -2.14378,-5.435182 -0.51827,-7.964424 0.49471,-0.753393 1.17789,-1.156995 2.54426,-1.964201 2.14378,-1.264621 3.43947,-1.991105 4.45247,-1.318434 1.29569,0.887925 1.27214,3.551702 1.27214,4.305094 0,0.322882 -0.0707,3.740051 -1.90821,5.112299 -0.58895,0.43051 -0.7303,0.188349 -2.33224,0.645764 -2.4736,0.726486 -2.82697,1.506784 -3.51015,1.183902 z"
   id="path63"
   style="stroke:#ffffff;stroke-width:0.5;stroke-dasharray:none" /><path
   class="st9"
   d="m 37.340307,64.988872 c -1.460598,-0.699577 -2.143782,-5.435181 -0.518278,-7.964424 0.494721,-0.753392 1.177903,-1.156994 2.54427,-1.9642 2.143783,-1.264621 3.439476,-1.991106 4.452473,-1.318435 1.295693,0.887926 1.272135,3.551704 1.272135,4.305095 0,0.322882 -0.07068,3.74005 -1.908203,5.112299 -0.588951,0.43051 -0.730299,0.188348 -2.332247,0.645764 -2.473595,0.726485 -2.826966,1.506783 -3.51015,1.183901 z"
   id="path64"
   style="stroke:#ffffff;stroke-width:0.5;stroke-dasharray:none" /><path
   class="st9"
   d="m 111.76891,37.057833 c -0.61252,1.668224 -4.75872,2.448523 -6.97318,0.591951 -0.65963,-0.565044 -1.013,-1.345342 -1.71974,-2.905939 -1.10723,-2.448522 -1.7433,-3.928399 -1.15434,-5.085393 0.77741,-1.479875 3.10966,-1.452969 3.76928,-1.452969 0.2827,0 3.27458,0.08072 4.47604,2.179454 0.37693,0.672671 0.16491,0.834112 0.56538,2.663777 0.63607,2.852125 1.31926,3.255728 1.03656,4.009119 z"
   id="path65"
   style="stroke:#ffffff;stroke-width:0.5;stroke-dasharray:none" /><path
   class="st9"
   d="m 42.814435,53.592277 c -0.612509,1.668224 -4.758725,2.448523 -6.973184,0.591951 -0.659625,-0.565044 -1.012996,-1.345342 -1.719737,-2.905939 -1.107228,-2.448522 -1.743296,-3.928399 -1.154345,-5.085393 0.777416,-1.479875 3.109664,-1.452969 3.769289,-1.452969 0.282696,0 3.274569,0.08072 4.47603,2.179454 0.376929,0.672671 0.164906,0.834112 0.565394,2.663777 0.636067,2.852125 1.31925,3.228821 1.036553,4.009119 z"
   id="path66"
   style="stroke:#ffffff;stroke-width:0.5;stroke-dasharray:none" /><path
   class="st9"
   d="m 99.495163,18.00779 c -0.75386,2.12564 -0.84809,5.892598 0,7.587728 1.861087,3.686238 8.198197,-2.663776 8.009737,-5.973318 -0.1649,-3.06738 -6.17221,-6.807431 -8.009737,-1.61441 z"
   id="path67"
   style="stroke:#ffffff;stroke-width:0.5;stroke-dasharray:none" /><path
   class="st9"
   d="m 32.00135,62.619331 c -0.753858,2.125641 -0.84809,5.892598 0,7.587729 1.861086,3.686237 8.198203,-2.663777 8.009739,-5.973318 -0.164907,-3.040474 -6.172211,-6.807431 -8.009739,-1.614411 z"
   id="path68"
   style="stroke:#ffffff;stroke-width:0.5;stroke-dasharray:none" /><path
   class="st9"
   d="m 167.71929,72.143829 c -0.79025,1.910956 -6.0725,2.802756 -8.90079,0.679448 -0.83186,-0.63698 -1.28936,-1.528781 -2.2044,-3.31235 -1.41415,-2.802756 -2.24599,-4.458923 -1.45574,-5.775366 0.99822,-1.698651 3.99287,-1.656183 4.82473,-1.656183 0.33273,0 4.20084,0.08487 5.69816,2.463032 0.49911,0.764382 0.20797,0.976719 0.74867,3.015093 0.79027,3.227416 1.6637,3.694541 1.28937,4.586326 z"
   id="path86-0"
   style="fill:#754c29;stroke:#ffffff;stroke-width:0.5;stroke-miterlimit:10;stroke-dasharray:none"
   inkscape:label="path86-0" /><path
   class="st9"
   d="m 93.275843,21.048263 c -0.80097,-1.237715 0.37693,-6.915059 2.45004,-9.390487 0.6125,-0.753392 1.24857,-1.022461 2.52072,-1.53369 2.002427,-0.8341131 3.180327,-1.345343 3.675047,-0.2421626 0.6125,1.3991556 -0.35337,4.4934426 -0.61252,5.3813686 -0.11779,0.349789 -1.389917,4.332001 -3.180327,5.354461 -0.58895,0.322882 -0.61251,0 -1.90821,0.08072 -2.04955,0.107628 -2.59138,0.914833 -2.94475,0.34979 z"
   id="path69"
   style="stroke:#ffffff;stroke-width:0.5;stroke-dasharray:none" /><path
   class="st9"
   d="m 122.39359,21.855467 c -0.94232,1.748945 -1.08367,4.87014 0,6.269296 2.33224,3.040472 10.29487,-2.206363 10.05929,-4.923954 -0.23557,-2.529243 -7.7506,-5.623528 -10.05929,-1.345342 z"
   id="path70"
   style="stroke:#ffffff;stroke-width:0.5;stroke-dasharray:none" /><path
   class="st9"
   d="m 75.680867,46.708018 c 0.706741,-1.53369 5.512584,-2.260175 8.103969,-0.565044 0.77742,0.51123 1.1779,1.237715 1.97888,2.663777 1.27213,2.260175 2.02599,3.605517 1.31925,4.68179 -0.89521,1.372249 -3.604385,1.345342 -4.3818,1.345342 -0.306255,0 -3.816405,-0.08072 -5.182772,-1.991106 -0.447603,-0.618858 -0.188464,-0.780298 -0.659625,-2.448522 -0.706742,-2.609964 -1.507716,-2.959753 -1.177902,-3.686237 z"
   id="path71"
   style="stroke:#ffffff;stroke-width:0.5;stroke-dasharray:none" /><path
   class="st9"
   d="m 100.79086,51.56062 c 0.49471,1.426063 1.97887,5.784971 4.24045,6.21548 2.16734,0.403603 3.51014,-3.040472 3.74573,-3.65933 0.30625,-0.753392 1.27214,-3.255728 0.14135,-6.323108 -0.94233,-2.502336 -3.36881,-5.515901 -5.70105,-5.381368 -1.88465,0.107628 -2.75629,2.233268 -2.9212,2.636871 -0.942327,2.313988 -0.0471,4.897044 0.49472,6.511455 z"
   id="path72"
   style="stroke:#ffffff;stroke-width:0.5;stroke-dasharray:none" /><path
   class="st9"
   d="m 41.895732,69.118644 c 0.49472,1.126512 1.978877,4.569815 4.240449,4.909894 2.167341,0.318824 3.510151,-2.40181 3.745731,-2.890674 0.306254,-0.595139 1.272135,-2.57185 0.141348,-4.994914 -0.942321,-1.97671 -3.368802,-4.357264 -5.701048,-4.25099 -1.884645,0.08502 -2.756293,1.764161 -2.921199,2.082985 -0.942323,1.827926 -0.07068,3.868402 0.494719,5.143699 z"
   id="path73"
   style="stroke:#ffffff;stroke-width:0.5;stroke-dasharray:none" /><path
   class="st9"
   d="m 159.08762,64.017137 c 2.63276,-3.313493 5.48751,-6.902087 4.16131,-7.956748 -1.92615,-1.52747 -13.16226,1.585957 -15.52531,6.909152 -1.60001,3.572685 1.03753,7.641764 3.99016,7.480555 2.36212,-0.128972 4.60367,-2.95203 7.37384,-6.432959 z"
   id="path74"
   style="stroke:#ffffff;stroke-width:0.5;stroke-dasharray:none" /><path
   class="st9"
   d="m 51.786457,58.091729 c -1.06012,3.094286 -1.201466,8.583282 0,11.031804 2.614936,5.354462 11.543439,-3.874585 11.284305,-8.664002 -0.259144,-4.466536 -8.692924,-9.901717 -11.284305,-2.367802 z"
   id="path75"
   style="stroke:#ffffff;stroke-width:0.5;stroke-dasharray:none" /><path
   class="st9"
   d="m 132.0524,48.116544 c -0.61252,1.668225 -4.75873,2.448523 -6.97318,0.591951 -0.65964,-0.565043 -1.01301,-1.345342 -1.71975,-2.905939 -1.10722,-2.448522 -1.74329,-3.928398 -1.15435,-5.085392 0.77742,-1.479877 3.10967,-1.45297 3.76929,-1.45297 0.2827,0 3.27457,0.08072 4.47604,2.179454 0.37692,0.672671 0.1649,0.834113 0.56539,2.663778 0.63607,2.852125 1.31925,3.22882 1.03656,4.009118 z"
   id="path76"
   style="stroke:#ffffff;stroke-width:0.5;stroke-dasharray:none" /><path
   class="st9"
   d="m 89.239216,41.853446 c 0.70674,-2.098733 5.512587,-3.094287 8.103957,-0.753391 0.77743,0.699578 1.17791,1.695131 1.97888,3.659331 1.272137,3.094285 2.025997,4.950857 1.319257,6.403827 -0.895207,1.856572 -3.604387,1.829665 -4.381797,1.829665 -0.30626,0 -3.81641,-0.107627 -5.182767,-2.744498 -0.44761,-0.861019 -0.18847,-1.076273 -0.65963,-3.363355 -0.7303,-3.578609 -1.50771,-4.062933 -1.1779,-5.031579 z"
   id="path77"
   style="stroke:#ffffff;stroke-width:0.5;stroke-dasharray:none" /><path
   class="st9"
   d="m 75.703613,69.457989 c -0.800974,1.937292 -3.203895,7.802983 0.424045,8.34112 3.463033,0.484323 9.965058,-4.224374 11.119398,-5.058486 1.43704,-1.049367 6.148647,-4.466535 7.656367,-8.583282 1.22502,-3.390262 0.35336,-7.399381 -4.07554,-7.130312 -3.580827,0.215255 -7.609251,3.094286 -8.386667,3.65933 -4.428914,3.121194 -5.842396,6.592176 -6.737603,8.77163 z"
   id="path78"
   style="stroke:#ffffff;stroke-width:0.5;stroke-dasharray:none" /><path
   class="st9"
   d="m 152.28197,34.064326 c -1.53128,-1.210808 -6.21933,-4.897044 -7.25588,-0.861019 -0.98945,3.820772 2.02599,11.919731 2.54426,13.345793 0.65963,1.802758 2.85053,7.66845 6.17222,10.036251 2.73274,1.937292 6.33712,1.61441 6.83184,-3.417169 0.40047,-4.062933 -1.43705,-9.094512 -1.79042,-10.036251 -2.00243,-5.542809 -4.78229,-7.722263 -6.50202,-9.067605 z"
   id="path79"
   style="stroke:#ffffff;stroke-width:0.5;stroke-dasharray:none" /><path
   class="st9"
   d="m 55.111878,46.808197 c 0.127128,-4.006075 0.267724,-8.346776 -1.52206,-8.354568 -2.596735,-0.0081 -10.126484,8.887159 -8.752204,14.230003 0.91047,3.5941 5.71914,5.075953 8.114047,3.227031 1.905601,-1.457932 2.012619,-4.870167 2.160217,-9.102466 z"
   id="path80"
   style="stroke:#ffffff;stroke-width:0.5;stroke-dasharray:none" /><path
   class="st9"
   d="m 63.409537,69.468473 c -3.439476,0.376695 -7.161648,0.780298 -6.737603,2.313987 0.612509,2.206361 10.012172,7.453195 14.22906,5.677344 2.826967,-1.210807 2.944756,-5.435182 0.777421,-7.23794 -1.719744,-1.452969 -4.664496,-1.156994 -8.268878,-0.753391 z"
   id="path81"
   style="stroke:#ffffff;stroke-width:0.5;stroke-dasharray:none" /><path
   class="st9"
   d="m 89.247416,60.278436 c 0.0236,3.094286 0.0471,6.457642 1.24858,6.699803 1.719727,0.376696 6.454897,-5.542809 5.394787,-9.87481 -0.70674,-2.905939 -3.934187,-4.708697 -5.465457,-3.605516 -1.22502,0.887925 -1.20147,3.524796 -1.17791,6.780523 z"
   id="path82"
   style="stroke:#ffffff;stroke-width:0.5;stroke-dasharray:none" /><path
   class="st9"
   d="m 63.537435,47.598504 c -2.365223,2.887119 -0.940022,7.249181 0,10.042155 2.122639,6.401873 7.671818,12.929273 11.037712,11.799531 2.001344,-0.690399 3.244601,-4.079626 2.820075,-6.747073 -0.636791,-3.765808 -4.305921,-3.922717 -5.245946,-7.876814 -0.940023,-3.954098 2.122639,-6.307729 0.78841,-8.222015 -1.455523,-2.102576 -6.944056,-1.977048 -9.400251,1.004216 z"
   id="path83"
   style="stroke:#ffffff;stroke-width:0.5;stroke-dasharray:none" /><path
   class="st9"
   d="m 115.67954,65.821245 c -0.44759,1.210808 -3.43947,1.775852 -5.04142,0.430509 -0.47115,-0.403602 -0.7303,-0.968646 -1.24857,-2.098733 -0.80097,-1.775851 -1.27214,-2.825218 -0.82453,-3.65933 0.56539,-1.076273 2.26156,-1.049367 2.73273,-1.049367 0.18846,0 2.37936,0.05382 3.22745,1.560597 0.2827,0.484323 0.11778,0.618857 0.42405,1.910386 0.44761,2.071826 0.94231,2.340894 0.73029,2.905938 z"
   id="path84"
   style="stroke:#ffffff;stroke-width:0.5;stroke-dasharray:none" /><path
   class="st9"
   d="m 120.67108,83.244545 c -1.26644,3.163303 -9.73166,4.639509 -14.26422,1.124729 -1.33311,-1.054433 -2.06631,-2.530641 -3.53273,-5.483058 -2.26628,-4.639509 -3.599387,-7.38104 -2.33293,-9.560202 1.59972,-2.811826 6.3989,-2.741531 7.73201,-2.741531 0.53324,0 6.73218,0.140596 9.13177,4.077146 0.79986,1.265322 0.33327,1.616799 1.1998,4.990988 1.19979,5.412764 2.59955,6.11572 2.0663,7.591928 z"
   id="path85"
   style="stroke:#ffffff;stroke-width:0.5;stroke-dasharray:none" /><path
   class="st9"
   d="m 33.08502,73.974017 c -0.447603,1.210808 -3.439475,1.775852 -5.041423,0.43051 -0.47116,-0.403603 -0.730299,-0.968647 -1.248576,-2.098733 -0.800973,-1.775852 -1.272135,-2.825218 -0.824532,-3.659331 0.565393,-1.076273 2.261572,-1.049366 2.732733,-1.049366 0.188464,0 2.379364,0.05382 3.227454,1.560597 0.282696,0.484322 0.117789,0.618857 0.424045,1.910385 0.447603,2.044919 0.942322,2.340895 0.730299,2.905938 z"
   id="path86"
   style="stroke:#ffffff;stroke-width:0.5;stroke-dasharray:none" /><path
   class="st9"
   d="m 59.069768,25.788333 c -0.848089,2.798311 -0.02359,6.968871 2.096667,8.287306 4.593823,2.825218 15.030039,-8.098959 13.757904,-11.569942 -1.1779,-3.255729 -13.757904,-3.524797 -15.854571,3.282636 z"
   id="path45-0"
   style="fill:#754c29;stroke:#ffffff;stroke-width:0.5;stroke-miterlimit:10;stroke-dasharray:none" /><path
   class="st9"
   d="m 96.044113,57.328062 c -0.92681,2.492157 -1.06582,6.939701 0,8.933429 2.29383,4.332518 10.125297,-3.143953 9.893607,-7.016384 -0.20843,-3.604043 -7.622947,-8.013247 -9.893607,-1.917045 z"
   id="path46-6"
   style="fill:#754c29;stroke:#ffffff;stroke-width:0.5;stroke-miterlimit:10;stroke-dasharray:none" /><path
   class="st9"
   d="m 160.63353,42.002074 c -0.94233,1.748944 -1.08369,4.870133 0,6.269296 2.33224,3.040467 10.29486,-2.206363 10.05929,-4.923955 -0.21202,-2.556149 -7.75061,-5.650436 -10.05929,-1.345341 z"
   id="path47-2"
   style="fill:#754c29;stroke:#ffffff;stroke-width:0.5;stroke-miterlimit:10;stroke-dasharray:none" /><path
   class="st9"
   d="m 132.51779,33.02354 c 0.70674,-2.098735 5.51258,-3.094288 8.10398,-0.753391 0.7774,0.699577 1.17789,1.69513 1.97887,3.65933 1.27214,3.094286 2.02599,4.950858 1.31926,6.403827 -0.89522,1.856572 -3.60439,1.829666 -4.38181,1.829666 -0.30625,0 -3.8164,-0.107627 -5.18277,-2.744498 -0.4476,-0.861019 -0.18846,-1.076273 -0.65962,-3.363355 -0.70675,-3.551703 -1.50772,-4.036026 -1.17791,-5.031579 z"
   id="path48-2"
   style="fill:#754c29;stroke:#ffffff;stroke-width:0.5;stroke-miterlimit:10;stroke-dasharray:none" /><path
   class="st9"
   d="m 164.54448,68.655984 c 0.93512,2.327756 3.76189,9.443004 7.6369,7.658981 3.68493,-1.712214 5.68516,-10.250843 6.05183,-11.74989 0.43978,-1.906806 1.91661,-8.106891 -0.26057,-12.966575 -1.78428,-4.007729 -6.09296,-7.261874 -10.00757,-4.242425 -3.17608,2.420325 -4.46463,7.70896 -4.71614,8.704314 -1.4249,5.780315 0.25409,9.96788 1.29555,12.595595 z"
   id="path51-5"
   style="fill:#754c29;stroke:#ffffff;stroke-width:0.5;stroke-miterlimit:10;stroke-dasharray:none" /><path
   class="st9"
   d="m 123.04481,48.761887 c -1.39523,1.45491 -8.85777,0.543798 -12.45506,-2.277627 -1.06945,-0.83881 -1.55072,-1.783498 -2.48962,-3.673892 -1.47191,-2.96694 -2.35996,-4.752265 -1.06503,-5.666453 1.66416,-1.198346 5.79238,-0.196767 6.9376,0.07559 0.47717,0.113479 5.79967,1.438921 7.47356,4.075297 0.5486,0.834498 0.14949,0.932211 0.50108,2.955271 0.62642,3.164408 1.76142,3.839464 1.09747,4.511821 z"
   id="path53-2"
   style="fill:#754c29;stroke:#ffffff;stroke-width:0.5;stroke-miterlimit:10;stroke-dasharray:none" /><path
   class="st9"
   d="M 58.315183,21.879385 C 57.09017,20.238072 58.173838,11.789323 60.788782,7.80711 61.566195,6.6232088 62.414284,6.1119795 64.110463,5.1164256 66.772529,3.5558289 68.374475,2.6140895 69.12833,4.1208727 c 0.989435,1.9372923 -0.04709,6.5921763 -0.329811,7.8837043 -0.11779,0.538137 -1.484157,6.538367 -3.863523,8.341126 -0.753856,0.591951 -0.824533,0.134529 -2.614945,0.457412 -2.803402,0.565043 -3.439469,1.829667 -4.004868,1.07627 z"
   id="path54-2"
   style="fill:#754c29;stroke:#ffffff;stroke-width:0.5;stroke-miterlimit:10;stroke-dasharray:none" /><path
   class="st9"
   d="m 70.559063,10.001767 c -1.507712,2.39471 -1.719734,6.699801 0,8.610191 C 74.281241,22.78251 86.955476,15.59839 86.602106,11.858342 86.248736,8.3604437 74.210564,4.1091686 70.559063,10.001767 Z"
   id="path57-7"
   style="fill:#754c29;stroke:#ffffff;stroke-width:0.5;stroke-miterlimit:10;stroke-dasharray:none" /><path
   class="st9"
   d="m 152.39354,28.020574 c -1.53051,-4.205796 3.8813,-12.418376 10.18249,-12.423911 1.89499,0.02152 3.62672,0.953382 7.0902,2.817114 5.4315,2.926771 8.66165,4.749308 9.46252,7.931822 0.98614,4.109687 -2.75691,7.831614 -3.80413,8.898946 -0.44881,0.457427 -5.31984,5.142957 -10.37612,3.042732 -1.60764,-0.686338 -1.51326,-1.340515 -4.89422,-4.218289 -5.28902,-4.466882 -6.97919,-4.139192 -7.66074,-6.048414 z"
   id="path61-1"
   style="fill:#754c29;stroke:#ffffff;stroke-width:0.5;stroke-miterlimit:10;stroke-dasharray:none" /><path
   class="st9"
   d="m 92.130753,75.440718 c -1.460587,-0.699578 -2.143777,-5.435182 -0.518267,-7.964425 0.494707,-0.753391 1.177897,-1.156994 2.544257,-1.964199 2.14379,-1.264621 3.43948,-1.991105 4.45248,-1.318435 1.29569,0.887925 1.27214,3.551703 1.27214,4.305094 0,0.322882 -0.0707,3.740051 -1.9082,5.1123 -0.58896,0.430509 -0.73031,0.188347 -2.33226,0.645764 -2.49715,0.726485 -2.82696,1.506783 -3.51015,1.183901 z"
   id="path62-5"
   style="fill:#754c29;stroke:#ffffff;stroke-width:0.5;stroke-miterlimit:10;stroke-dasharray:none" /><path
   class="st9"
   d="m 107.41066,16.904607 c -1.46059,-0.699572 -2.14377,-5.435179 -0.51827,-7.9644219 0.49472,-0.7533921 1.1779,-1.1569944 2.54427,-1.9642 2.14379,-1.2646214 3.43947,-1.9911058 4.45247,-1.3184349 1.29569,0.8879259 1.27214,3.5517035 1.27214,4.3050949 0,0.3228819 -0.0707,3.7400509 -1.9082,5.1122999 -0.58896,0.43051 -0.73031,0.188348 -2.33225,0.645764 -2.4736,0.726486 -2.82697,1.506781 -3.51016,1.183898 z"
   id="path64-2"
   style="fill:#754c29;stroke:#ffffff;stroke-width:0.5;stroke-miterlimit:10;stroke-dasharray:none" /><path
   class="st9"
   d="m 146.2366,8.8388466 c 2.19445,-1.7041456 10.20257,-2.4077396 12.99902,-0.4410165 0.82516,0.5982243 0.95616,1.4108255 1.21814,3.0360319 0.4081,2.549858 0.59481,4.09016 -1.22406,5.268101 -2.3701,1.506062 -6.57126,1.421833 -7.76443,1.405853 -0.51137,-0.0068 -5.87066,-0.162516 -6.67703,-2.354219 -0.24369,-0.702271 0.24497,-0.863494 0.7122,-2.758531 0.70704,-2.954314 -0.28342,-3.3590344 0.73616,-4.1562194 z"
   id="path66-1"
   style="fill:#754c29;stroke:#ffffff;stroke-width:0.5;stroke-miterlimit:10;stroke-dasharray:none"
   inkscape:transform-center-x="4.3683061"
   inkscape:transform-center-y="-7.2743538" /><path
   class="st9"
   d="m 143.93506,17.026253 c -4.63889,-2.227686 -12.13782,-4.066357 -14.99468,-3.381217 -6.20276,1.518507 10.02994,15.112086 16.46058,16.26674 5.91267,1.0748 9.86462,-7.450292 -1.4659,-12.885523 z"
   id="path68-1"
   style="fill:#754c29;stroke:#ffffff;stroke-width:0.5;stroke-miterlimit:10;stroke-dasharray:none" />

</svg>
